<svg width="24" height="24" viewBox="0 0 24 24" fill="none" xmlns="http://www.w3.org/2000/svg">
<path d="M16.167 2.5565C16.6087 2.55652 16.9667 2.91458 16.9668 3.3563V4.95689H18.3672C18.9195 4.95689 19.3672 5.4046 19.3672 5.95689V10.9461C18.8613 10.7482 18.325 10.6123 17.7666 10.5467V9.95689C17.7666 9.4046 17.3189 8.95689 16.7666 8.95689H6.7666C6.21432 8.95689 5.7666 9.4046 5.7666 9.95689V15.9569C5.76681 16.509 6.21445 16.9569 6.7666 16.9569H10.501C10.5009 16.9712 10.5 16.9855 10.5 16.9999C10.5 17.5365 10.5668 18.0577 10.6895 18.5565H5.16699C4.61484 18.5565 4.1672 18.1086 4.16699 17.5565V5.95689C4.16699 5.4046 4.61471 4.95689 5.16699 4.95689H6.56738V3.3563C6.56749 2.91456 6.92543 2.5565 7.36719 2.5565C7.80886 2.5566 8.16689 2.91463 8.16699 3.3563V4.95689H15.3672V3.3563C15.3673 2.91456 15.7252 2.5565 16.167 2.5565Z" fill="#333333"/>
<path d="M17 12C19.7614 12 22 14.2386 22 17C22 19.7614 19.7614 22 17 22C14.2386 22 12 19.7614 12 17C12 14.2386 14.2386 12 17 12ZM17 14.4004C16.6689 14.4006 16.4006 14.6689 16.4004 15V16.2004C16.4004 16.3108 16.3108 16.4004 16.2004 16.4004H15C14.6689 16.4006 14.4006 16.6689 14.4004 17C14.4006 17.3311 14.6689 17.5994 15 17.5996H16.2004C16.3108 17.5996 16.4004 17.6892 16.4004 17.7996V19L16.4121 19.1211C16.4683 19.3941 16.7104 19.5994 17 19.5996C17.2896 19.5994 17.5318 19.3942 17.5879 19.1211L17.5996 19V17.7996C17.5996 17.6892 17.6892 17.5996 17.7996 17.5996H19L19.1211 17.5879C19.3941 17.5318 19.5994 17.2896 19.5996 17C19.5994 16.7104 19.3941 16.4683 19.1211 16.4121L19 16.4004H17.7996C17.6892 16.4004 17.5996 16.3108 17.5996 16.2004V15C17.5994 14.6689 17.331 14.4006 17 14.4004Z" fill="#333333"/>
</svg>
