<svg width="24" height="24" viewBox="0 0 24 24" fill="none" xmlns="http://www.w3.org/2000/svg">
<path fill-rule="evenodd" clip-rule="evenodd" d="M8.85689 3.0821C9.25323 3.34633 9.36033 3.88183 9.0961 4.27817L6.0961 8.77817C5.83188 9.17451 5.29638 9.28161 4.90003 9.01738C4.50369 8.75316 4.39659 8.21766 4.66082 7.82131L7.66082 3.32131C7.92505 2.92497 8.46055 2.81787 8.85689 3.0821Z" fill="#333333"/>
<path fill-rule="evenodd" clip-rule="evenodd" d="M13.9 3.0821C14.2964 2.81787 14.8319 2.92497 15.0961 3.32131L18.0961 7.82131C18.3603 8.21766 18.2532 8.75316 17.8569 9.01738C17.4605 9.28161 16.925 9.17451 16.6608 8.77817L13.6608 4.27817C13.3966 3.88183 13.5037 3.34633 13.9 3.0821Z" fill="#333333"/>
<path d="M18.2095 7.43822C18.8105 7.45901 19.369 7.75223 19.7271 8.23509C20.0826 8.71447 20.2023 9.32867 20.0533 9.90599L19.8238 10.8689C18.9647 10.4726 18.0088 10.2498 17.0005 10.2497C13.2727 10.2497 10.2507 13.2719 10.2505 16.9997C10.2505 17.3961 10.2866 17.7843 10.3521 18.1618H6.16461C5.26646 18.1455 4.49686 17.5161 4.30231 16.6404L2.70367 9.90599C2.55467 9.3287 2.67442 8.71444 3.02985 8.23509C3.38792 7.7522 3.94652 7.4591 4.54742 7.43822C4.55736 7.43787 4.56775 7.43724 4.5777 7.43724H18.1802C18.19 7.43725 18.1998 7.43788 18.2095 7.43822Z" fill="#333333"/>
<path d="M17 12C19.7614 12 22 14.2386 22 17C22 19.7614 19.7614 22 17 22C14.2386 22 12 19.7614 12 17C12 14.2386 14.2386 12 17 12ZM17 14.4004C16.6689 14.4006 16.4006 14.6689 16.4004 15V16.2004C16.4004 16.3108 16.3108 16.4004 16.2004 16.4004H15C14.6689 16.4006 14.4006 16.6689 14.4004 17C14.4006 17.3311 14.6689 17.5994 15 17.5996H16.2004C16.3108 17.5996 16.4004 17.6892 16.4004 17.7996V19L16.4121 19.1211C16.4683 19.3941 16.7104 19.5994 17 19.5996C17.2896 19.5994 17.5318 19.3942 17.5879 19.1211L17.5996 19V17.7996C17.5996 17.6892 17.6892 17.5996 17.7996 17.5996H19L19.1211 17.5879C19.3941 17.5318 19.5994 17.2896 19.5996 17C19.5994 16.7104 19.3941 16.4683 19.1211 16.4121L19 16.4004H17.7996C17.6892 16.4004 17.5996 16.3108 17.5996 16.2004V15C17.5994 14.6689 17.331 14.4006 17 14.4004Z" fill="#333333"/>
</svg>
