<svg width="24" height="24" viewBox="0 0 24 24" fill="none" xmlns="http://www.w3.org/2000/svg">
<path d="M8.04626 3.36165H13.8118C13.8755 3.36165 13.9366 3.34332 13.9817 3.31069C14.0267 3.27805 14.052 3.23379 14.052 3.18764V3.01362C14.0164 2.76093 13.8455 2.5284 13.5762 2.36578C13.3068 2.20317 12.9602 2.1234 12.6106 2.14354H9.24742C8.89786 2.1234 8.5513 2.20317 8.28191 2.36578C8.01253 2.5284 7.84171 2.76093 7.80603 3.01362V3.18764C7.80603 3.23379 7.83134 3.27805 7.87639 3.31069C7.92144 3.34332 7.98255 3.36165 8.04626 3.36165Z" fill="#333333"/>
<path d="M13.5372 4.67487C13.5189 4.63277 13.4886 4.59694 13.4502 4.57177C13.4118 4.54661 13.3668 4.53319 13.3209 4.53316H7.72742C7.69438 4.53318 7.66171 4.54012 7.63153 4.55354C7.60134 4.56697 7.57431 4.58658 7.55218 4.6111L5.84466 6.50047C5.81406 6.53438 5.79395 6.57643 5.78676 6.62153C5.77957 6.66664 5.78561 6.71286 5.80416 6.7546C5.8227 6.79634 5.85295 6.8318 5.89125 6.8567C5.92954 6.8816 5.97423 6.89486 6.0199 6.89488H11.5907C11.6235 6.89491 11.6559 6.88813 11.6859 6.87495C11.7159 6.86178 11.7428 6.8425 11.765 6.81836L13.4971 4.92899C13.5276 4.89504 13.5477 4.85298 13.5548 4.80787C13.5619 4.76277 13.5558 4.71657 13.5372 4.67487Z" fill="#333333"/>
<path d="M11.0625 8.06669C11.123 8.06669 11.1809 8.09216 11.2236 8.137C11.2664 8.18184 11.291 8.24255 11.291 8.30595V13.3948C10.628 14.4393 10.2432 15.6774 10.2432 17.0061C10.2432 17.6122 10.3239 18.1993 10.4736 18.7581H5.93359C5.75236 18.758 5.57837 18.6826 5.4502 18.5481C5.32195 18.4136 5.25 18.2306 5.25 18.0403V8.30595C5.25 8.24268 5.27385 8.18181 5.31641 8.137C5.35906 8.09226 5.41723 8.0668 5.47754 8.06669H11.0625Z" fill="#333333"/>
<path d="M14.7191 5.45423C14.7513 5.45424 14.7834 5.46143 14.8129 5.47474C14.8421 5.48802 14.8684 5.5072 14.89 5.53138L16.5551 7.41029C16.6803 7.54208 16.7505 7.7188 16.7504 7.90247V10.2618C15.1057 10.3199 13.6112 10.9655 12.4701 11.9962V7.93861C12.47 7.87965 12.4918 7.82299 12.5306 7.77943L14.5482 5.53138C14.5698 5.5072 14.5961 5.48801 14.6254 5.47474C14.6548 5.46142 14.6869 5.45423 14.7191 5.45423Z" fill="#333333"/>
<path d="M16.9927 12.0063C19.7541 12.0063 21.9927 14.2449 21.9927 17.0063C21.9927 19.7677 19.7541 22.0063 16.9927 22.0063C14.2313 22.0063 11.9927 19.7677 11.9927 17.0063C11.9927 14.2449 14.2313 12.0063 16.9927 12.0063ZM16.9995 14.3998C16.6685 14.4001 16.4002 14.6685 16.3999 14.9995V16.1998C16.3999 16.3103 16.3104 16.3998 16.1999 16.3998H14.9995C14.6685 16.4001 14.4002 16.6685 14.3999 16.9995C14.3999 17.3307 14.6684 17.5988 14.9995 17.5991H16.1999C16.3104 17.5991 16.3999 17.6886 16.3999 17.7991V18.9995L16.4116 19.1205C16.4676 19.3937 16.7098 19.5988 16.9995 19.5991C17.2894 19.5991 17.5314 19.3939 17.5874 19.1205L17.5991 18.9995V17.7991C17.5991 17.6886 17.6887 17.5991 17.7991 17.5991H18.9995L19.1206 17.5873C19.3939 17.5313 19.5991 17.2893 19.5991 16.9995C19.5989 16.7098 19.3938 16.4675 19.1206 16.4116L18.9995 16.3998H17.7991C17.6887 16.3998 17.5991 16.3103 17.5991 16.1998V14.9995C17.5988 14.6683 17.3307 14.3998 16.9995 14.3998Z" fill="#333333"/>
</svg>
