<svg width="24" height="24" viewBox="0 0 24 24" fill="none" xmlns="http://www.w3.org/2000/svg">
<path d="M16.6094 3.75C16.9781 3.75 17.3321 3.89651 17.5928 4.15723C17.8535 4.41795 18 4.77191 18 5.14062V10.5762C17.674 10.5258 17.3401 10.5 17 10.5C15.8505 10.5 14.7709 10.7987 13.834 11.3223L13.0752 9.80469C13.0146 9.68849 12.9228 9.59111 12.8105 9.52344C12.6983 9.45588 12.5695 9.42023 12.4385 9.4209C12.3074 9.42393 12.1799 9.46418 12.0703 9.53613C11.9608 9.60815 11.8731 9.70903 11.8184 9.82812L10.7354 12.2148C10.7232 12.2419 10.7044 12.2656 10.6807 12.2832C10.6569 12.3008 10.629 12.3127 10.5996 12.3164C10.5703 12.3201 10.5401 12.3158 10.5127 12.3047C10.4852 12.2935 10.4609 12.2751 10.4424 12.252L9.87207 11.54C9.80482 11.4558 9.71888 11.3881 9.62109 11.3428C9.52315 11.2975 9.41547 11.276 9.30762 11.2793C9.1998 11.2831 9.09391 11.3119 8.99902 11.3633C8.90417 11.4146 8.82193 11.487 8.75977 11.5752L6.59277 14.6709C6.55581 14.7229 6.53378 14.784 6.5293 14.8477C6.52484 14.9114 6.53793 14.9755 6.56738 15.0322C6.59685 15.0889 6.64159 15.1369 6.69629 15.1699C6.75096 15.2028 6.8141 15.2201 6.87793 15.2197H10.749C10.5882 15.7857 10.5 16.3825 10.5 17C10.5 17.3401 10.5268 17.674 10.5771 18H5.14062C4.77191 18 4.41795 17.8535 4.15723 17.5928C3.89651 17.3321 3.75 16.9781 3.75 16.6094V5.14062C3.75 4.77191 3.89651 4.41795 4.15723 4.15723C4.41795 3.89651 4.77191 3.75 5.14062 3.75H16.6094ZM8.09473 6.52832C7.23094 6.52832 6.53027 7.22899 6.53027 8.09277C6.53045 8.95641 7.23105 9.65625 8.09473 9.65625C8.95835 9.65619 9.65803 8.95637 9.6582 8.09277C9.6582 7.22902 8.95846 6.52838 8.09473 6.52832Z" fill="#333333"/>
<path d="M17 12C19.7614 12 22 14.2386 22 17C22 19.7614 19.7614 22 17 22C14.2386 22 12 19.7614 12 17C12 14.2386 14.2386 12 17 12ZM17 14.4004C16.6689 14.4006 16.4006 14.6689 16.4004 15V16.2004C16.4004 16.3108 16.3108 16.4004 16.2004 16.4004H15C14.6689 16.4006 14.4006 16.6689 14.4004 17C14.4006 17.3311 14.6689 17.5994 15 17.5996H16.2004C16.3108 17.5996 16.4004 17.6892 16.4004 17.7996V19L16.4121 19.1211C16.4683 19.3941 16.7104 19.5994 17 19.5996C17.2896 19.5994 17.5318 19.3942 17.5879 19.1211L17.5996 19V17.7996C17.5996 17.6892 17.6892 17.5996 17.7996 17.5996H19L19.1211 17.5879C19.3941 17.5318 19.5994 17.2896 19.5996 17C19.5994 16.7104 19.3941 16.4683 19.1211 16.4121L19 16.4004H17.7996C17.6892 16.4004 17.5996 16.3108 17.5996 16.2004V15C17.5994 14.6689 17.331 14.4006 17 14.4004Z" fill="#333333"/>
</svg>
