<svg width="24" height="24" viewBox="0 0 24 24" fill="none" xmlns="http://www.w3.org/2000/svg">
<path d="M11.9999 3C14.386 3.00293 16.6731 3.95246 18.3603 5.63965C20.0475 7.32684 20.997 9.61395 20.9999 12C20.9999 13.78 20.4722 15.52 19.4833 17C18.4945 18.4799 17.0887 19.6332 15.4443 20.3145C13.7997 20.9956 11.9899 21.1744 10.2441 20.8271C8.49827 20.4799 6.89435 19.6229 5.63569 18.3643C4.37702 17.1056 3.52007 15.5017 3.1728 13.7559C2.82553 12.01 3.0043 10.2002 3.68549 8.55566C4.3667 6.91127 5.52 5.50547 6.99994 4.5166C8.47995 3.52774 10.22 3 11.9999 3ZM11.9999 7C11.4477 7 10.9999 7.44772 10.9999 8V10.7C10.9999 10.8657 10.8656 11 10.6999 11H7.99994C7.44766 11 6.99994 11.4477 6.99994 12C6.99994 12.5523 7.44766 13 7.99994 13H10.6999C10.8656 13 10.9999 13.1343 10.9999 13.3V16C10.9999 16.5523 11.4477 17 11.9999 17C12.5522 17 12.9999 16.5523 12.9999 16V13.3C12.9999 13.1343 13.1343 13 13.2999 13H15.9999C16.5522 13 16.9999 12.5523 16.9999 12C16.9999 11.4477 16.5522 11 15.9999 11H13.2999C13.1343 11 12.9999 10.8657 12.9999 10.7V8C12.9999 7.44772 12.5522 7 11.9999 7Z" fill="#333333"/>
</svg>
