<svg width="24" height="24" viewBox="0 0 24 24" fill="none" xmlns="http://www.w3.org/2000/svg">
<path d="M6.5 3C7.18868 3 7.83062 3.1991 8.37184 3.54276C8.93551 3.90067 8.70507 4.67813 8.12136 5.00233C6.81258 5.72925 5.72925 6.81258 5.00233 8.12136C4.67813 8.70507 3.90067 8.93551 3.54276 8.37184C3.1991 7.83062 3 7.18868 3 6.5C3 4.567 4.567 3 6.5 3Z" fill="#333333"/>
<path d="M17.5562 2.80438C19.4582 2.80444 20.9995 4.34672 20.9995 6.24872C20.9994 6.9981 20.7601 7.69137 20.3536 8.25649C19.9802 8.77573 19.2438 8.54774 18.9232 7.99435C18.1766 6.70591 17.0813 5.64526 15.7657 4.94173C15.2015 4.63999 14.9482 3.91162 15.4547 3.52052C16.036 3.07157 16.7647 2.80438 17.5562 2.80438Z" fill="#333333"/>
<path d="M12 5C15.866 5 19 8.13401 19 12C19 15.866 15.866 19 12 19C8.13401 19 5 15.866 5 12C5 8.13401 8.13401 5 12 5ZM12 8C11.6134 8 11.2998 8.3136 11.2998 8.7002V12.0664H11.3027C11.2975 12.4794 11.549 12.8691 11.959 13.0186L14.1211 13.8057C14.4843 13.9376 14.8854 13.7498 15.0176 13.3867C15.1498 13.0235 14.9629 12.6215 14.5996 12.4893L12.7002 11.7979V8.7002C12.7002 8.3136 12.3866 8 12 8Z" fill="#333333"/>
<rect x="7.46265" y="16" width="2" height="4" rx="1" transform="rotate(38 7.46265 16)" fill="#333333"/>
<rect x="15" y="17.3383" width="2" height="4" rx="1" transform="rotate(-42 15 17.3383)" fill="#333333"/>
</svg>
