<svg width="24" height="24" viewBox="0 0 24 24" fill="none" xmlns="http://www.w3.org/2000/svg">
<path d="M16.0402 12.5844C16.4605 11.8356 17.5388 11.8357 17.9592 12.5844L22.2053 20.1527C22.6167 20.886 22.0871 21.7914 21.2463 21.7914H12.7531C11.9125 21.7911 11.3828 20.8859 11.7941 20.1527L16.0402 12.5844ZM17.0002 18.7504C16.6861 18.7504 16.4309 19.0046 16.4309 19.3187C16.4309 19.6328 16.6861 19.8871 17.0002 19.8871C17.3142 19.887 17.5686 19.6328 17.5686 19.3187C17.5685 19.0047 17.3142 18.7505 17.0002 18.7504ZM17.0002 15.5971C16.6862 15.5971 16.431 15.8514 16.4309 16.1654V17.3031C16.4309 17.6172 16.6861 17.8715 17.0002 17.8715C17.3142 17.8713 17.5686 17.6171 17.5686 17.3031V16.1654C17.5684 15.8515 17.3141 15.5972 17.0002 15.5971Z" fill="#333333"/>
<path d="M13.2109 3C13.4721 3.00287 13.724 3.09932 13.9229 3.27246C14.1218 3.44582 14.2555 3.68574 14.2998 3.94922L14.9932 9.27637C14.9975 9.30907 15 9.342 15 9.375C14.9986 10.6828 14.5519 11.9497 13.7363 12.957C12.9208 13.9642 11.7873 14.6493 10.5312 14.8945C10.4475 14.9109 10.3717 14.9563 10.3174 15.0234C10.263 15.0906 10.2334 15.1755 10.2334 15.2627V19.125C10.2334 19.2245 10.2721 19.3203 10.3408 19.3906C10.4095 19.4607 10.5026 19.4999 10.5996 19.5H10.6191L9.79297 21H7.2998C7.10538 20.9999 6.91873 20.9209 6.78125 20.7803C6.6438 20.6396 6.56641 20.4489 6.56641 20.25C6.56641 20.0511 6.6438 19.8604 6.78125 19.7197C6.91873 19.5791 7.10538 19.5001 7.2998 19.5H8.40039C8.49737 19.4999 8.59054 19.4607 8.65918 19.3906C8.72794 19.3203 8.7666 19.2245 8.7666 19.125V15.2627C8.76659 15.1755 8.73696 15.0906 8.68262 15.0234C8.62828 14.9563 8.55247 14.9109 8.46875 14.8945C7.21275 14.6493 6.07925 13.9642 5.26367 12.957C4.44806 11.9497 4.00137 10.6828 4 9.375C4.00005 9.34238 4.00249 9.30965 4.00684 9.27734L4.69629 3.97461C4.73528 3.70584 4.86621 3.45987 5.06641 3.28125C5.26677 3.10258 5.52326 3.00285 5.78906 3H13.2109ZM6.26758 4.5C6.22362 4.50023 6.18068 4.51646 6.14746 4.5459C6.11441 4.57526 6.09245 4.61588 6.08594 4.66016L5.74512 7.28516C5.7412 7.31184 5.74352 7.33935 5.75098 7.36523C5.75845 7.39115 5.77159 7.41528 5.78906 7.43555C5.80618 7.45561 5.82691 7.47232 5.85059 7.4834C5.87435 7.49451 5.90063 7.49993 5.92676 7.5H13.0732C13.0991 7.4999 13.1249 7.49429 13.1484 7.4834C13.172 7.47241 13.1938 7.45644 13.2109 7.43652C13.228 7.41655 13.2405 7.39258 13.248 7.36719C13.2556 7.34175 13.2582 7.31446 13.2549 7.28809L12.9141 4.66309C12.9082 4.61821 12.8857 4.57684 12.8525 4.54688C12.8193 4.51704 12.7767 4.50033 12.7324 4.5H6.26758Z" fill="#333333"/>
</svg>
