<svg width="24" height="24" viewBox="0 0 24 24" fill="none" xmlns="http://www.w3.org/2000/svg">
<path d="M17.3108 9.20497C17.5685 9.69344 18.1734 9.88052 18.6619 9.62282C19.1503 9.36512 19.3374 8.76022 19.0797 8.27175L17.3108 9.20497ZM6.57686 14.5709C6.33988 14.0721 5.74336 13.8598 5.2445 14.0967C4.74565 14.3337 4.53336 14.9302 4.77034 15.4291L6.57686 14.5709ZM4.52558 9.14277C4.32828 9.65861 4.58652 10.2367 5.10236 10.434C5.6182 10.6313 6.19632 10.3731 6.39361 9.85723L4.52558 9.14277ZM19.4744 14.8572C19.6716 14.3414 19.4134 13.7633 18.8976 13.566C18.3817 13.3687 17.8036 13.6269 17.6063 14.1428L19.4744 14.8572ZM13.5 8C12.9477 8 12.5 8.44772 12.5 9C12.5 9.55228 12.9477 10 13.5 10V8ZM18.5 9V10C18.7825 10 19.0518 9.88049 19.2414 9.67101C19.431 9.46152 19.5231 9.18162 19.495 8.9005L18.5 9ZM18.995 3.9005C18.94 3.35095 18.45 2.95001 17.9005 3.00496C17.3509 3.05992 16.95 3.54996 17.0049 4.0995L18.995 3.9005ZM10.5 16C11.0523 16 11.5 15.5523 11.5 15C11.5 14.4477 11.0523 14 10.5 14V16ZM5.49997 15V14C5.21744 14 4.94809 14.1195 4.75851 14.329C4.56893 14.5385 4.47682 14.8184 4.50493 15.0995L5.49997 15ZM5.00493 20.0995C5.05988 20.649 5.54993 21.05 6.09947 20.995C6.64901 20.9401 7.04996 20.45 6.995 19.9005L5.00493 20.0995ZM12 5V6C14.3027 6 16.3042 7.29697 17.3108 9.20497L18.1952 8.73836L19.0797 8.27175C17.7407 5.73365 15.0736 4 12 4V5ZM12 19V18C9.60799 18 7.54093 16.6003 6.57686 14.5709L5.6736 15L4.77034 15.4291C6.05319 18.1296 8.80715 20 12 20V19ZM5.45959 9.5L6.39361 9.85723C7.25689 7.60013 9.4428 6 12 6V5V4C8.58674 4 5.67515 6.13713 4.52558 9.14277L5.45959 9.5ZM18.5403 14.5L17.6063 14.1428C16.743 16.3999 14.5571 18 12 18V19V20C15.4132 20 18.3248 17.8629 19.4744 14.8572L18.5403 14.5ZM13.5 9V10H18.5V9V8H13.5V9ZM18.5 9L19.495 8.9005L18.995 3.9005L18 4L17.0049 4.0995L17.5049 9.0995L18.5 9ZM10.5 15V14H5.49997V15V16H10.5V15ZM5.49997 15L4.50493 15.0995L5.00493 20.0995L5.99997 20L6.995 19.9005L6.495 14.9005L5.49997 15Z" fill="#333333"/>
</svg>
