<svg width="24" height="24" viewBox="0 0 24 24" fill="none" xmlns="http://www.w3.org/2000/svg">
<path d="M3 12C3 13.78 3.52784 15.5201 4.51677 17.0001C5.50571 18.4802 6.91131 19.6337 8.55585 20.3149C10.2004 20.9961 12.01 21.1743 13.7558 20.8271C15.5016 20.4798 17.1053 19.6226 18.364 18.364C19.6226 17.1053 20.4798 15.5016 20.8271 13.7558C21.1743 12.01 20.9961 10.2004 20.3149 8.55585C19.6337 6.91131 18.4802 5.50571 17.0001 4.51677C15.5201 3.52784 13.78 3 12 3C9.6139 3.00278 7.32633 3.95188 5.63911 5.63911C3.95188 7.32633 3.00278 9.6139 3 12H3ZM13.2802 8.09325L16.6552 11.4682C16.7959 11.6089 16.8748 11.7996 16.8748 11.9985C16.8748 12.1974 16.7959 12.3881 16.6552 12.5287L13.2802 15.9037C13.1388 16.0404 12.9493 16.116 12.7527 16.1143C12.5561 16.1125 12.3679 16.0337 12.2289 15.8946C12.0898 15.7556 12.011 15.5674 12.0092 15.3708C12.0075 15.1742 12.0831 14.9847 12.2197 14.8432L13.9942 13.068C14.0198 13.0417 14.037 13.0084 14.0438 12.9724C14.0507 12.9364 14.0468 12.8991 14.0327 12.8653C14.0185 12.8314 13.9948 12.8025 13.9644 12.782C13.9339 12.7615 13.8982 12.7504 13.8615 12.75H7.5C7.30109 12.75 7.11032 12.671 6.96967 12.5303C6.82902 12.3897 6.75 12.1989 6.75 12C6.75 11.8011 6.82902 11.6103 6.96967 11.4697C7.11032 11.329 7.30109 11.25 7.5 11.25H13.8615C13.8986 11.2501 13.9349 11.2391 13.9658 11.2185C13.9967 11.1979 14.0208 11.1686 14.035 11.1343C14.0493 11.1 14.053 11.0622 14.0457 11.0258C14.0385 10.9894 14.0205 10.956 13.9942 10.9297L12.2197 9.15375C12.0831 9.0123 12.0075 8.82285 12.0092 8.6262C12.011 8.42955 12.0898 8.24144 12.2289 8.10239C12.3679 7.96333 12.5561 7.88445 12.7527 7.88274C12.9493 7.88103 13.1388 7.95663 13.2802 8.09325Z" fill="#333333"/>
</svg>
