<svg width="24" height="24" viewBox="0 0 24 24" fill="none" xmlns="http://www.w3.org/2000/svg">
<path d="M6 15.5V8.5M9 12V8.5M12 12V8.5M15 12V8.5M18 15.5V8.5M9 14.5V15.5M12 14.5V15.5M15 14.5V15.5" stroke="#333333" stroke-width="2" stroke-linecap="round"/>
<path d="M3 7.5V5.5C3 5.22386 3.22386 5 3.5 5H5.5" stroke="#333333" stroke-width="2" stroke-linecap="round" stroke-linejoin="round"/>
<path d="M3 16.5V18.5C3 18.7761 3.22386 19 3.5 19H5.5" stroke="#333333" stroke-width="2" stroke-linecap="round" stroke-linejoin="round"/>
<path d="M21 7.5V5.5C21 5.22386 20.7761 5 20.5 5H18.5" stroke="#333333" stroke-width="2" stroke-linecap="round" stroke-linejoin="round"/>
<path d="M21 16.5V18.5C21 18.7761 20.7761 19 20.5 19H18.5" stroke="#333333" stroke-width="2" stroke-linecap="round" stroke-linejoin="round"/>
</svg>
