<svg width="24" height="24" viewBox="0 0 24 24" fill="none" xmlns="http://www.w3.org/2000/svg">
<path d="M21 13.5897C20.9967 15.7822 20.0796 17.8871 18.4437 19.457C16.8077 21.0269 14.5818 21.9381 12.2391 21.997C9.89633 22.0558 7.6214 21.2576 5.89777 19.772C4.17415 18.2865 3.1377 16.2307 3.00871 14.0415C3.00002 13.8917 3.00002 13.7407 3.00002 13.5897C2.99502 11.4176 3.89288 9.32867 5.50388 7.76443C5.5754 7.69476 5.66436 7.64288 5.76272 7.61349C5.86108 7.5841 5.96572 7.57812 6.06716 7.59611C6.16861 7.6141 6.26366 7.65548 6.34369 7.71651C6.42373 7.77753 6.48623 7.85627 6.52553 7.9456C6.88646 8.76439 7.38519 9.52384 8.00277 10.1951C8.76333 8.93185 9.16148 7.50595 9.1585 6.05609C9.16063 4.94001 8.92559 3.83467 8.46705 2.80433C8.42199 2.70332 8.40835 2.59246 8.42773 2.48452C8.4471 2.37657 8.49869 2.27595 8.57655 2.19426C8.6544 2.11256 8.75536 2.05311 8.86777 2.02276C8.98018 1.99242 9.09946 1.99241 9.21188 2.02275C11.5482 2.63551 13.6199 3.91918 15.1345 5.69259C16.7892 7.61628 17.6887 10.0126 17.683 12.4818C17.6847 12.5593 17.6814 12.6369 17.6731 12.7141C18.4607 12.4768 19.2077 12.135 19.8915 11.6991C19.9768 11.6447 20.0752 11.6111 20.1779 11.6014C20.2805 11.5916 20.3842 11.6059 20.4795 11.643C20.5747 11.6801 20.6586 11.7389 20.7235 11.814C20.7883 11.8891 20.8322 11.9781 20.851 12.073C20.9499 12.5733 20.9998 13.081 21 13.5897Z" fill="#333333"/>
</svg>
