<svg width="24" height="24" viewBox="0 0 24 24" fill="none" xmlns="http://www.w3.org/2000/svg">
<path d="M3.54253 9.01417L11.6491 12.711C11.8726 12.8125 12.1247 12.8125 12.3477 12.711L20.4575 9.01417C20.673 8.91605 20.8439 8.73115 20.9331 8.49918C21.0223 8.26721 21.0223 8.00744 20.9331 7.77604C20.8439 7.54407 20.6735 7.35917 20.4575 7.26105L12.3509 3.57614C12.1274 3.47462 11.8753 3.47462 11.6523 3.57614L3.54253 7.26048C3.327 7.3586 3.15607 7.5435 3.06689 7.77547C2.9777 8.00744 2.9777 8.26721 3.06689 8.49861C3.15607 8.73059 3.32647 8.91548 3.54253 9.0136V9.01417Z" fill="#333333"/>
<path d="M19.7579 11.174L11.999 14.7126L4.24011 11.174C3.94815 11.0464 3.61424 11.0929 3.36315 11.2971C3.11206 11.5012 2.98041 11.8319 3.01651 12.1665C3.05314 12.5017 3.25274 12.791 3.54152 12.9271L11.6481 16.6239C11.8716 16.7254 12.1237 16.7254 12.3467 16.6239L20.4565 12.9271C20.7452 12.7904 20.9448 12.5012 20.9815 12.1665C21.0181 11.8313 20.8865 11.5012 20.6348 11.2971C20.3832 11.0935 20.0498 11.0464 19.7579 11.174Z" fill="#333333"/>
<path d="M19.7579 14.9746L11.999 18.5131L4.24011 14.9746C3.94815 14.847 3.61424 14.8935 3.36315 15.0976C3.11206 15.3018 2.98041 15.6325 3.01651 15.9671C3.05314 16.3023 3.25274 16.5916 3.54152 16.7277L11.6481 20.4245C11.8716 20.526 12.1237 20.526 12.3467 20.4245L20.4565 16.7277C20.7452 16.591 20.9448 16.3017 20.9815 15.9671C21.0181 15.6319 20.8865 15.3018 20.6348 15.0976C20.3832 14.894 20.0498 14.847 19.7579 14.9746Z" fill="#333333"/>
</svg>
