<svg width="24" height="24" viewBox="0 0 24 24" fill="none" xmlns="http://www.w3.org/2000/svg">
<g clip-path="url(#clip0_1_112714)">
<path d="M5.63602 5.63608C7.32528 3.95096 9.61393 3.00514 12 3.00514C14.386 3.00514 16.6747 3.95096 18.3639 5.63608C19.6226 6.8947 20.4798 8.49826 20.8271 10.244C21.1743 11.9897 20.9958 13.7993 20.3147 15.4437C19.6335 17.0883 18.4802 18.4944 17.0001 19.4834C15.5201 20.4723 13.78 21.0005 12 21.0005C10.22 21.0005 8.47986 20.4723 6.99982 19.4834C5.51978 18.4944 4.36645 17.0883 3.68526 15.4437C3.00418 13.7993 2.82564 11.9897 3.17288 10.244C3.52017 8.49826 4.37739 6.8947 5.63602 5.63608ZM8.46444 8.46451C8.07392 8.85503 8.07392 9.48819 8.46444 9.87872L10.3736 11.7879C10.4908 11.9051 10.4908 12.095 10.3736 12.2122L8.46444 14.1214C8.07392 14.5119 8.07392 15.145 8.46444 15.5356C8.85497 15.9261 9.48813 15.9261 9.87866 15.5356L11.7878 13.6264C11.905 13.5092 12.095 13.5092 12.2121 13.6264L14.1213 15.5356C14.5118 15.9261 15.145 15.9261 15.5355 15.5356C15.926 15.145 15.926 14.5119 15.5355 14.1214L13.6263 12.2122C13.5092 12.095 13.5092 11.9051 13.6263 11.7879L15.5355 9.87872C15.926 9.48819 15.926 8.85503 15.5355 8.46451C15.145 8.07398 14.5118 8.07398 14.1213 8.46451L12.2121 10.3737C12.095 10.4909 11.905 10.4909 11.7878 10.3737L9.87866 8.46451C9.48813 8.07398 8.85497 8.07398 8.46444 8.46451Z" fill="#333333"/>
</g>
<defs>
<clipPath id="clip0_1_112714">
<rect width="24" height="24" fill="white"/>
</clipPath>
</defs>
</svg>
