<svg width="24" height="24" viewBox="0 0 24 24" fill="none" xmlns="http://www.w3.org/2000/svg">
<path d="M10.0455 4H4.95455C4.42736 4 4 4.42736 4 4.95455V10.0455C4 10.5726 4.42736 11 4.95455 11H10.0455C10.5726 11 11 10.5726 11 10.0455V4.95455C11 4.42736 10.5726 4 10.0455 4Z" fill="#333333"/>
<path d="M19.0455 4H13.9545C13.4274 4 13 4.42736 13 4.95455V10.0455C13 10.5726 13.4274 11 13.9545 11H19.0455C19.5726 11 20 10.5726 20 10.0455V4.95455C20 4.42736 19.5726 4 19.0455 4Z" fill="#333333"/>
<path d="M10.0455 13H4.95455C4.42736 13 4 13.4274 4 13.9545V19.0455C4 19.5726 4.42736 20 4.95455 20H10.0455C10.5726 20 11 19.5726 11 19.0455V13.9545C11 13.4274 10.5726 13 10.0455 13Z" fill="#333333"/>
<path d="M19.0455 13H13.9545C13.4274 13 13 13.4274 13 13.9545V19.0455C13 19.5726 13.4274 20 13.9545 20H19.0455C19.5726 20 20 19.5726 20 19.0455V13.9545C20 13.4274 19.5726 13 19.0455 13Z" fill="#333333"/>
</svg>
