<svg width="24" height="24" viewBox="0 0 24 24" fill="none" xmlns="http://www.w3.org/2000/svg">
<path fill-rule="evenodd" clip-rule="evenodd" d="M19.2 6.4C19.6418 5.95817 19.6418 5.24183 19.2 4.8C18.7582 4.35817 18.0418 4.35817 17.6 4.8L12 10.4L6.4 4.8C5.95817 4.35817 5.24183 4.35817 4.8 4.8C4.35817 5.24183 4.35817 5.95817 4.8 6.4L10.4 12L4.8 17.6C4.35817 18.0418 4.35817 18.7582 4.8 19.2C5.24183 19.6418 5.95817 19.6418 6.4 19.2L12 13.6L17.6 19.2C18.0418 19.6418 18.7582 19.6418 19.2 19.2C19.6418 18.7582 19.6418 18.0418 19.2 17.6L13.6 12L19.2 6.4Z" fill="#333333"/>
</svg>
