<svg width="24" height="24" viewBox="0 0 24 24" fill="none" xmlns="http://www.w3.org/2000/svg">
<g clip-path="url(#clip0_1_112688)">
<path fill-rule="evenodd" clip-rule="evenodd" d="M5.63607 18.3639C5.08933 17.8172 5.12099 16.8991 5.70678 16.3133L16.3134 5.70673C16.8992 5.12094 17.8173 5.08929 18.364 5.63602C18.9107 6.18275 18.8791 7.10084 18.2933 7.68663L7.68668 18.2932C7.10089 18.879 6.1828 18.9107 5.63607 18.3639Z" fill="#333333"/>
<path fill-rule="evenodd" clip-rule="evenodd" d="M5.63883 5.63878C6.18557 5.09205 7.10373 5.12378 7.68961 5.70966L18.2979 16.318C18.8838 16.9038 18.9155 17.822 18.3688 18.3687C17.822 18.9155 16.9039 18.8837 16.318 18.2979L5.70971 7.68956C5.12383 7.10368 5.0921 6.18552 5.63883 5.63878Z" fill="#333333"/>
</g>
<defs>
<clipPath id="clip0_1_112688">
<rect width="24" height="24" fill="white"/>
</clipPath>
</defs>
</svg>
