<svg width="24" height="24" viewBox="0 0 24 24" fill="none" xmlns="http://www.w3.org/2000/svg">
<path d="M17.6228 7H6.37872C6.3262 6.99978 6.27421 7.01102 6.22608 7.03299C6.17796 7.05497 6.13476 7.0872 6.09925 7.12762C6.06374 7.16805 6.03671 7.21577 6.01988 7.26773C6.00305 7.3197 5.9968 7.37476 6.00153 7.4294L6.97242 18.5668C7.0065 18.9585 7.17956 19.3227 7.45762 19.5879C7.73567 19.853 8.09862 20 8.47516 20H15.5264C15.9029 20 16.2659 19.853 16.5439 19.5879C16.822 19.3227 16.995 18.9585 17.0291 18.5668L17.9985 7.4294C18.0032 7.37492 17.9969 7.32003 17.9802 7.26821C17.9634 7.2164 17.9365 7.16879 17.9012 7.12843C17.8659 7.088 17.8229 7.05571 17.7749 7.03359C17.727 7.01148 17.6752 7.00004 17.6228 7ZM10.6825 17.2424C10.6825 17.3991 10.6229 17.5494 10.5168 17.6603C10.4107 17.7711 10.2668 17.8333 10.1167 17.8333C9.96664 17.8333 9.82273 17.7711 9.71662 17.6603C9.61052 17.5494 9.55091 17.3991 9.55091 17.2424V10.1515C9.55091 9.9948 9.61052 9.8445 9.71662 9.73368C9.82273 9.62287 9.96664 9.56061 10.1167 9.56061C10.2668 9.56061 10.4107 9.62287 10.5168 9.73368C10.6229 9.8445 10.6825 9.9948 10.6825 10.1515V17.2424ZM14.4544 17.2424C14.4544 17.3991 14.3948 17.5494 14.2887 17.6603C14.1826 17.7711 14.0387 17.8333 13.8886 17.8333C13.7386 17.8333 13.5946 17.7711 13.4885 17.6603C13.3824 17.5494 13.3228 17.3991 13.3228 17.2424V10.1515C13.3228 9.9948 13.3824 9.8445 13.4885 9.73368C13.5946 9.62287 13.7386 9.56061 13.8886 9.56061C14.0387 9.56061 14.1826 9.62287 14.2887 9.73368C14.3948 9.8445 14.4544 9.9948 14.4544 10.1515V17.2424Z" fill="#333333"/>
<rect x="5.5" y="4.60001" width="13" height="1.4" rx="0.7" fill="#333333"/>
<path d="M10 5.00001L11 3.5H13L14 5.00001" stroke="#333333" stroke-width="1.4" stroke-linecap="square" stroke-linejoin="round"/>
</svg>
