<svg width="24" height="24" viewBox="0 0 24 24" fill="none" xmlns="http://www.w3.org/2000/svg">
<mask id="path-1-outside-1_1_112743" maskUnits="userSpaceOnUse" x="3" y="3" width="18" height="18" fill="black">
<rect fill="white" x="3" y="3" width="18" height="18"/>
<path d="M12 4C16.4183 4 20 7.58172 20 12C20 16.4183 16.4183 20 12 20C7.58172 20 4 16.4183 4 12C4 7.58172 7.58172 4 12 4ZM8.59961 16.9424C9.56625 17.6087 10.7372 18 12 18C15.3137 18 18 15.3137 18 12C18 10.7372 17.6087 9.56625 16.9424 8.59961L8.59961 16.9424ZM12 6C8.68629 6 6 8.68629 6 12C6 13.2623 6.39079 14.433 7.05664 15.3994L15.3994 7.05664C14.433 6.39079 13.2623 6 12 6Z"/>
</mask>
<path d="M12 4C16.4183 4 20 7.58172 20 12C20 16.4183 16.4183 20 12 20C7.58172 20 4 16.4183 4 12C4 7.58172 7.58172 4 12 4ZM8.59961 16.9424C9.56625 17.6087 10.7372 18 12 18C15.3137 18 18 15.3137 18 12C18 10.7372 17.6087 9.56625 16.9424 8.59961L8.59961 16.9424ZM12 6C8.68629 6 6 8.68629 6 12C6 13.2623 6.39079 14.433 7.05664 15.3994L15.3994 7.05664C14.433 6.39079 13.2623 6 12 6Z" fill="#333333"/>
<path d="M8.59961 16.9424L8.38748 16.7303L8.13277 16.985L8.42935 17.1894L8.59961 16.9424ZM12 18V18.3H12L12 18ZM18 12L18.3 12V12H18ZM16.9424 8.59961L17.1894 8.42935L16.985 8.13277L16.7303 8.38748L16.9424 8.59961ZM12 6L12 5.7H12V6ZM6 12H5.7L5.7 12L6 12ZM7.05664 15.3994L6.8096 15.5696L7.01401 15.8663L7.26877 15.6115L7.05664 15.3994ZM15.3994 7.05664L15.6115 7.26877L15.8663 7.01401L15.5696 6.8096L15.3994 7.05664ZM12 4V4.3C16.2526 4.3 19.7 7.74741 19.7 12H20H20.3C20.3 7.41604 16.584 3.7 12 3.7V4ZM20 12H19.7C19.7 16.2526 16.2526 19.7 12 19.7V20V20.3C16.584 20.3 20.3 16.584 20.3 12H20ZM12 20V19.7C7.74741 19.7 4.3 16.2526 4.3 12H4H3.7C3.7 16.584 7.41604 20.3 12 20.3V20ZM4 12H4.3C4.3 7.74741 7.74741 4.3 12 4.3V4V3.7C7.41604 3.7 3.7 7.41604 3.7 12H4ZM8.59961 16.9424L8.42935 17.1894C9.44425 17.889 10.6742 18.3 12 18.3V18V17.7C10.8001 17.7 9.68824 17.3284 8.76987 16.6954L8.59961 16.9424ZM12 18L12 18.3C15.4794 18.3 18.3 15.4794 18.3 12L18 12L17.7 12C17.7 15.148 15.148 17.7 12 17.7L12 18ZM18 12H18.3C18.3 10.6742 17.889 9.44425 17.1894 8.42935L16.9424 8.59961L16.6954 8.76987C17.3284 9.68824 17.7 10.8001 17.7 12H18ZM16.9424 8.59961L16.7303 8.38748L8.38748 16.7303L8.59961 16.9424L8.81174 17.1545L17.1545 8.81174L16.9424 8.59961ZM12 6V5.7C8.52061 5.7 5.7 8.52061 5.7 12H6H6.3C6.3 8.85198 8.85198 6.3 12 6.3V6ZM6 12L5.7 12C5.7 13.3252 6.11047 14.5549 6.8096 15.5696L7.05664 15.3994L7.30368 15.2292C6.6711 14.3111 6.3 13.1994 6.3 12L6 12ZM7.05664 15.3994L7.26877 15.6115L15.6115 7.26877L15.3994 7.05664L15.1873 6.84451L6.84451 15.1873L7.05664 15.3994ZM15.3994 7.05664L15.5696 6.8096C14.5549 6.11047 13.3252 5.7 12 5.7L12 6L12 6.3C13.1994 6.3 14.3111 6.6711 15.2292 7.30368L15.3994 7.05664Z" fill="#333333" mask="url(#path-1-outside-1_1_112743)"/>
</svg>
