<svg width="24" height="24" viewBox="0 0 24 24" fill="none" xmlns="http://www.w3.org/2000/svg">
<path d="M16.0228 18.885C16.0103 18.8398 15.9802 18.7998 15.9376 18.7717L10.7321 15.3883C10.7089 15.3689 10.6812 15.3541 10.6509 15.3447C10.6206 15.3354 10.5883 15.3317 10.5562 15.334C10.5242 15.3363 10.493 15.3445 10.4649 15.3581C10.4367 15.3717 10.4123 15.3903 10.3931 15.4127L8.31612 17.8298C8.29803 17.8513 8.28509 17.8756 8.27805 17.9014L7.43494 20.9347C7.33069 21.4492 7.68243 22 8.21277 22H15.7871C16.3184 22 16.6692 21.4492 16.565 20.9362L16.0228 18.885Z" fill="#333333"/>
<path d="M14.6674 10.4701C14.6674 10.437 14.6771 10.4046 14.6954 10.3764C14.7137 10.3482 14.7398 10.3254 14.7709 10.3106C14.802 10.2957 14.8368 10.2894 14.8714 10.2923C14.9061 10.2952 14.9392 10.3072 14.9671 10.327L15.5567 10.7505C15.651 10.8179 15.7696 10.8468 15.8863 10.8309C16.0031 10.8151 16.1084 10.7557 16.1792 10.6658L20.5722 5.04925C20.7137 4.86954 20.7744 4.64364 20.7411 4.42126C20.7077 4.19887 20.583 3.99822 20.3943 3.86343L18.6158 2.598C18.4271 2.46321 18.1899 2.40534 17.9564 2.43711C17.723 2.46887 17.5123 2.58768 17.3708 2.7674L13.2446 8.04091C13.2152 8.07839 13.1736 8.10559 13.1264 8.1183C13.0791 8.13101 13.0287 8.12852 12.9831 8.11121C12.6708 7.9902 12.3367 7.92835 11.9996 7.9291C11.9688 7.92852 11.9389 7.92 11.9128 7.90446C11.8868 7.88892 11.8656 7.86693 11.8517 7.84085C11.8377 7.81477 11.8314 7.78557 11.8335 7.75636C11.8356 7.72716 11.846 7.69903 11.8635 7.675L12.4326 6.94741C12.4677 6.90292 12.4932 6.85229 12.5077 6.79841C12.5222 6.74454 12.5254 6.68847 12.5171 6.63341C12.5088 6.57836 12.4893 6.52539 12.4595 6.47753C12.4298 6.42968 12.3904 6.38787 12.3437 6.3545L6.45228 2.16941C6.2636 2.03462 6.02643 1.97675 5.79295 2.00852C5.55947 2.04029 5.34881 2.1591 5.2073 2.33881L3.87961 4.03284C3.7381 4.21255 3.67734 4.43845 3.71069 4.66083C3.74405 4.88321 3.86878 5.08387 4.05746 5.21866L9.53895 9.11492C9.5805 9.14458 9.60989 9.18712 9.62207 9.2352C9.63424 9.28328 9.62843 9.3339 9.60564 9.37834C9.42776 9.71749 9.33405 10.091 9.33175 10.4701C9.33167 10.4778 9.32938 10.4852 9.32513 10.4917C9.32088 10.4982 9.31483 10.5034 9.30766 10.5068C9.30049 10.5103 9.29247 10.5117 9.28448 10.5111C9.27649 10.5104 9.26885 10.5077 9.26238 10.5032L8.44247 9.91874C8.34813 9.85134 8.22955 9.82241 8.11281 9.83829C7.99607 9.85418 7.89074 9.91358 7.81998 10.0034L3.42786 15.6174C3.28635 15.7972 3.22559 16.0231 3.25894 16.2454C3.2923 16.4678 3.41703 16.6685 3.60571 16.8033L5.38871 18.0738C5.4824 18.1403 5.58894 18.1886 5.70224 18.2158C5.81553 18.2431 5.93336 18.2489 6.04898 18.2327C6.16461 18.2166 6.27576 18.1789 6.37609 18.1219C6.47642 18.0648 6.56395 17.9895 6.63369 17.9001L10.6007 12.8316C10.6314 12.7922 10.6755 12.7643 10.7255 12.7525C10.7755 12.7408 10.8282 12.746 10.8746 12.7672C11.2258 12.9275 11.6102 13.0109 11.9996 13.0112C12.0108 13.0112 12.0218 13.0142 12.0313 13.0199C12.0409 13.0256 12.0485 13.0336 12.0535 13.0432C12.0585 13.0528 12.0606 13.0635 12.0596 13.0742C12.0585 13.0848 12.0544 13.095 12.0476 13.1035L11.5638 13.7218C11.5288 13.7663 11.5033 13.8169 11.4888 13.8708C11.4743 13.9247 11.4711 13.9808 11.4794 14.0358C11.4876 14.0909 11.5072 14.1438 11.5369 14.1917C11.5667 14.2396 11.606 14.2814 11.6528 14.3147L17.5442 18.4973C17.6376 18.564 17.7439 18.6126 17.8571 18.6402C17.9702 18.6678 18.0879 18.6739 18.2035 18.6582C18.3191 18.6425 18.4304 18.6052 18.5308 18.5485C18.6313 18.4918 18.7191 18.4169 18.7892 18.3279L20.1231 16.6296C20.2646 16.4499 20.3254 16.224 20.292 16.0016C20.2587 15.7792 20.1339 15.5786 19.9452 15.4438L14.5651 11.6246C14.5262 11.5967 14.4978 11.5575 14.4845 11.5128C14.4712 11.4681 14.4736 11.4205 14.4913 11.3773C14.6092 11.0881 14.6689 10.7804 14.6674 10.4701ZM11.9996 11.3172C11.8237 11.3172 11.6518 11.2675 11.5055 11.1744C11.3593 11.0813 11.2453 10.9491 11.178 10.7943C11.1107 10.6395 11.0931 10.4692 11.1274 10.3049C11.1617 10.1406 11.2464 9.98967 11.3708 9.87121C11.4951 9.75276 11.6536 9.67208 11.8261 9.6394C11.9986 9.60672 12.1774 9.62349 12.3399 9.6876C12.5024 9.75171 12.6413 9.86027 12.739 9.99957C12.8367 10.1389 12.8888 10.3026 12.8888 10.4701C12.8888 10.6948 12.7952 10.9102 12.6284 11.0691C12.4616 11.2279 12.2354 11.3172 11.9996 11.3172Z" fill="#333333"/>
</svg>
