<svg width="24" height="24" viewBox="0 0 24 24" fill="none" xmlns="http://www.w3.org/2000/svg">
<path opacity="0.9" d="M10.8143 7.88958C10.8143 10.4868 9.25596 11.8193 6.90715 11.8193C4.55834 11.8193 3 10.4868 3 7.88958C3 5.31493 4.53576 3.86951 6.90715 3.86951C9.27854 3.86951 10.8143 5.31493 10.8143 7.88958ZM7.29109 19.9046H5.5069C5.39398 19.9046 5.32622 19.7691 5.39398 19.6788L16.2572 4.3212C16.3476 4.18569 16.5282 4.09535 16.6863 4.09535H18.4479C18.5609 4.09535 18.6286 4.23086 18.5609 4.3212L7.7202 19.6788C7.62986 19.8143 7.44918 19.9046 7.29109 19.9046ZM5.32622 7.88958C5.32622 9.40276 5.89084 10.1255 6.90715 10.1255C7.92346 10.1255 8.4655 9.44793 8.4655 7.88958C8.4655 6.28607 7.87829 5.56336 6.88457 5.56336C5.91343 5.56336 5.32622 6.28607 5.32622 7.88958ZM21 16.1104C21 18.6851 19.4417 20.1305 17.0703 20.1305C14.7215 20.1305 13.1857 18.6851 13.1857 16.0878C13.1857 13.5132 14.7215 12.1807 17.0928 12.1807C19.4417 12.1807 21 13.4906 21 16.1104ZM15.5119 16.1104C15.5119 17.7139 16.1217 18.4366 17.0928 18.4366C18.0866 18.4366 18.6512 17.7139 18.6512 16.1104C18.6512 14.5972 18.0866 13.8745 17.0703 13.8745C16.054 13.8745 15.5119 14.5746 15.5119 16.1104Z" fill="black"/>
</svg>
