<svg width="24" height="24" viewBox="0 0 24 24" fill="none" xmlns="http://www.w3.org/2000/svg">
<path d="M14.2195 6.03209C14.4147 5.83703 14.7313 5.8369 14.9265 6.03209L17.9665 9.07213C18.1616 9.26733 18.1615 9.58393 17.9665 9.77916L8.13938 19.6063C7.8616 19.8841 7.50776 20.074 7.12278 20.1522L3.75071 20.8368C3.39999 20.9079 3.09088 20.5986 3.16184 20.2479L3.84641 16.8758C3.92459 16.4909 4.11453 16.137 4.39231 15.8592L14.2195 6.03209ZM16.6228 3.48619C17.4038 2.70515 18.6699 2.70517 19.4509 3.48619L20.4411 4.47643C21.2219 5.2575 21.2221 6.52359 20.4411 7.30455L19.3806 8.3651C19.1854 8.56031 18.8688 8.56022 18.6736 8.3651L15.5622 5.25377C15.367 5.05851 15.367 4.742 15.5622 4.54674L16.6228 3.48619Z" fill="#333333"/>
</svg>
