<svg width="24" height="24" viewBox="0 0 24 24" fill="none" xmlns="http://www.w3.org/2000/svg">
<path fill-rule="evenodd" clip-rule="evenodd" d="M4.00418 5.76516C3.68426 5.94919 3.75438 6.38644 4.07086 6.57632L11.4855 11.0251C11.8022 11.2151 12.1978 11.2151 12.5145 11.0251L19.9291 6.57633C20.2456 6.38644 20.3157 5.94919 19.9958 5.76516C19.7026 5.59648 19.3626 5.5 19 5.5H5C4.63744 5.5 4.2974 5.59648 4.00418 5.76516ZM21 8.79605C21 8.56286 20.7456 8.41883 20.5457 8.5388L13.5435 12.7401C12.5934 13.3101 11.4066 13.3101 10.4565 12.7401L3.45435 8.5388C3.25439 8.41882 3 8.56286 3 8.79605V16.5C3 17.6046 3.89543 18.5 5 18.5H19C20.1046 18.5 21 17.6046 21 16.5V8.79605Z" fill="#333333"/>
</svg>
