<svg width="24" height="24" viewBox="0 0 24 24" fill="none" xmlns="http://www.w3.org/2000/svg">
<circle cx="17.0089" cy="16.9899" r="1.76167" fill="#333333"/>
<ellipse cx="8.57832" cy="16.9899" rx="1.76167" ry="1.76167" fill="#333333"/>
<path d="M14.066 5.25C14.8547 5.25015 15.2738 5.61963 15.3239 6.3584C15.3296 6.44378 15.3985 6.51346 15.484 6.51367H17.4352C22.8768 6.51367 22.8749 13.4206 22.8746 14.334V14.3496C22.8746 15.192 21.8958 16.2012 21.0533 16.2012H19.566C19.4603 16.2012 19.3666 16.1349 19.3239 16.0381C18.8425 14.9478 17.8177 14.5167 17.0143 14.5166C16.5771 14.5166 16.0812 14.6336 15.6383 14.9209C15.4584 15.0376 15.2874 15.1829 15.1324 15.3594C14.9607 15.555 14.808 15.7891 14.6862 16.0674C14.6512 16.1472 14.5741 16.2011 14.4869 16.2012H11.2115C11.0689 16.2012 10.9436 16.1108 10.8834 15.9814C10.482 15.1168 9.60554 14.5166 8.58948 14.5166C7.57353 14.5167 6.69792 15.1169 6.29651 15.9814C6.23639 16.1107 6.11093 16.201 5.96838 16.2012H5.64124C4.79896 16.2012 4.37772 15.7806 4.37756 14.9385V6.51367C4.37756 5.67124 4.7988 5.25 5.64124 5.25H14.066ZM16.1705 7.6084C15.8321 7.6084 15.6384 7.75059 15.6383 8.09277V12.8379C15.6383 13.5964 15.7447 13.6894 16.0719 13.5693C16.2488 13.5044 16.5794 13.4219 17.0143 13.4219C17.8494 13.4219 18.853 13.7462 19.6031 14.5166C19.6579 14.5728 19.8311 14.7674 19.8834 14.8252C20.0796 15.0417 20.1211 15.1064 20.3239 15.1064H20.9606C20.9817 15.1053 21.1119 15.0986 21.194 15.0566C21.2877 15.0086 21.3955 14.9296 21.4977 14.8252C21.5996 14.721 21.6775 14.6097 21.7262 14.5107C21.7764 14.4087 21.7776 14.2806 21.778 14.21C21.7781 14.1861 21.778 14.1686 21.7799 14.1611C21.78 13.714 21.7751 12.1025 21.1686 10.46C20.8687 9.6481 20.4453 8.93768 19.8649 8.43555C19.3054 7.95162 18.5413 7.6084 17.4352 7.6084H16.1705Z" fill="#333333"/>
<rect x="0.677979" y="6.52607" width="3.23111" height="1.10407" rx="0.552035" fill="#333333"/>
<rect x="1.52234" y="8.73421" width="2.38673" height="1.10407" rx="0.552035" fill="#333333"/>
<rect x="2.49756" y="10.9424" width="1.41151" height="1.10407" rx="0.552035" fill="#333333"/>
</svg>
