<svg width="24" height="24" viewBox="0 0 24 24" fill="none" xmlns="http://www.w3.org/2000/svg">
<circle cx="16.1809" cy="18.9849" r="1.67294" fill="#333333"/>
<circle cx="7.81625" cy="18.9849" r="1.67294" fill="#333333"/>
<path d="M13.2527 7.27434C14.0361 7.27434 14.453 7.6412 14.5027 8.37492C14.5084 8.45983 14.5768 8.52922 14.6619 8.52922H16.5994C22.0021 8.52956 22 15.387 21.9998 16.2939V16.3105C21.9994 17.1468 21.0275 18.1484 20.1912 18.1484H18.7146C18.6096 18.1484 18.5168 18.0822 18.4744 17.9863C17.9964 16.9036 16.9782 16.4755 16.1804 16.4755C15.7463 16.4755 15.2539 16.5916 14.8142 16.8769C14.6356 16.9928 14.4661 17.1372 14.3123 17.3124C14.1417 17.5066 13.9909 17.7393 13.8699 18.0155C13.8352 18.0947 13.7581 18.1482 13.6716 18.1484H10.4187C10.2772 18.1482 10.1532 18.0579 10.0935 17.9296C9.69494 17.0712 8.82491 16.4756 7.81616 16.4755C6.8073 16.4755 5.93742 17.0711 5.53882 17.9296C5.47908 18.0582 5.35441 18.1484 5.21265 18.1484H4.88843C4.05196 18.1484 3.63354 17.7299 3.63354 16.8935V11.8447C4.37877 12.2819 5.24613 12.5341 6.17261 12.5341C8.94792 12.5339 11.198 10.2841 11.198 7.50871C11.198 7.43015 11.1957 7.35202 11.1921 7.27434H13.2527ZM15.3435 9.61613C15.0074 9.61613 14.8142 9.75764 14.8142 10.0976V14.8085C14.8142 15.5619 14.9207 15.6545 15.2458 15.5351C15.4216 15.4706 15.7489 15.3876 16.1804 15.3876C17.0098 15.3876 18.0068 15.7103 18.7517 16.4755C18.8061 16.5314 18.977 16.7247 19.0291 16.7822C19.2238 16.9971 19.2653 17.0614 19.4666 17.0614H20.0964L20.0994 17.0605C20.1203 17.0594 20.2494 17.0524 20.3308 17.0107C20.4238 16.963 20.5312 16.8857 20.6326 16.7822C20.7338 16.6787 20.8107 16.5679 20.8591 16.4697C20.909 16.3684 20.9105 16.2409 20.9109 16.1708C20.911 16.1475 20.911 16.1305 20.9128 16.123C20.913 15.6794 20.9077 14.0793 20.3054 12.4482C20.0077 11.6418 19.587 10.9361 19.0105 10.4374C18.4551 9.95704 17.6973 9.61622 16.5994 9.61613H15.3435Z" fill="#333333"/>
<path fill-rule="evenodd" clip-rule="evenodd" d="M6.17216 10.6755C7.92106 10.6755 9.33883 9.2577 9.33883 7.5088C9.33883 5.7599 7.92106 4.34213 6.17216 4.34213C4.42326 4.34213 3.00549 5.7599 3.00549 7.5088C3.00549 9.2577 4.42326 10.6755 6.17216 10.6755ZM10.3388 7.5088C10.3388 9.80999 8.47335 11.6755 6.17216 11.6755C3.87097 11.6755 2.00549 9.80999 2.00549 7.5088C2.00549 5.20761 3.87097 3.34213 6.17216 3.34213C8.47335 3.34213 10.3388 5.20761 10.3388 7.5088Z" fill="#333333"/>
<rect width="0.778493" height="3.64768" rx="0.389246" transform="matrix(0.949397 -0.314079 0.30402 0.952666 4.85461 5.40005)" fill="#333333"/>
<rect width="0.786631" height="2.62178" rx="0.393315" transform="matrix(0.566652 0.823957 -0.814259 0.580502 7.87012 6.7359)" fill="#333333"/>
</svg>
