<svg width="24" height="24" viewBox="0 0 24 24" fill="none" xmlns="http://www.w3.org/2000/svg">
<path d="M13.125 15.375V16.125C13.5392 16.125 13.875 15.7892 13.875 15.375H13.125ZM4.3127 14.9885C4.58679 15.299 5.06075 15.3286 5.3713 15.0545C5.68185 14.7804 5.7114 14.3064 5.4373 13.9959L4.3127 14.9885ZM10.875 14.625C10.4608 14.625 10.125 14.9608 10.125 15.375C10.125 15.7892 10.4608 16.125 10.875 16.125V14.625ZM18.3309 13.7901C18.0436 14.0885 18.0526 14.5633 18.3511 14.8505C18.6495 15.1378 19.1243 15.1288 19.4115 14.8303L18.3309 13.7901ZM19.5 12.75H20.25V12H19.5H18.75V12.75H19.5ZM15 7.5V6.75H13.5V7.5V8.25H15V7.5ZM4.5 13.5H5.25V7.5H4.5H3.75V13.5H4.5ZM6 6V6.75H11.625V6V5.25H6V6ZM13.125 7.5H12.375V15.375H13.125H13.875V7.5H13.125ZM4.5 7.5H5.25C5.25 7.08579 5.58579 6.75 6 6.75V6V5.25C4.75736 5.25 3.75 6.25736 3.75 7.5H4.5ZM19.5 12H20.25C20.25 9.10051 17.8995 6.75 15 6.75V7.5V8.25C17.0711 8.25 18.75 9.92893 18.75 12H19.5ZM11.625 6V6.75C12.0392 6.75 12.375 7.08579 12.375 7.5H13.125H13.875C13.875 6.25736 12.8676 5.25 11.625 5.25V6ZM4.5 13.5H3.75C3.75 14.0701 3.96302 14.5923 4.3127 14.9885L4.875 14.4922L5.4373 13.9959C5.32021 13.8632 5.25 13.6907 5.25 13.5H4.5ZM10.875 15.375V16.125H13.125V15.375V14.625H10.875V15.375ZM19.5 12.75H18.75C18.75 13.1542 18.5911 13.5197 18.3309 13.7901L18.8712 14.3102L19.4115 14.8303C19.93 14.2917 20.25 13.5574 20.25 12.75H19.5ZM18 17.25H17.25C17.25 17.6642 16.9142 18 16.5 18V18.75V19.5C17.7426 19.5 18.75 18.4926 18.75 17.25H18ZM16.5 18.75V18C16.0858 18 15.75 17.6642 15.75 17.25H15H14.25C14.25 18.4926 15.2574 19.5 16.5 19.5V18.75ZM15 17.25H15.75C15.75 16.8358 16.0858 16.5 16.5 16.5V15.75V15C15.2574 15 14.25 16.0074 14.25 17.25H15ZM16.5 15.75V16.5C16.9142 16.5 17.25 16.8358 17.25 17.25H18H18.75C18.75 16.0074 17.7426 15 16.5 15V15.75ZM9 17.25H8.25C8.25 17.6642 7.91421 18 7.5 18V18.75V19.5C8.74264 19.5 9.75 18.4926 9.75 17.25H9ZM7.5 18.75V18C7.08579 18 6.75 17.6642 6.75 17.25H6H5.25C5.25 18.4926 6.25736 19.5 7.5 19.5V18.75ZM6 17.25H6.75C6.75 16.8358 7.08579 16.5 7.5 16.5V15.75V15C6.25736 15 5.25 16.0074 5.25 17.25H6ZM7.5 15.75V16.5C7.91421 16.5 8.25 16.8358 8.25 17.25H9H9.75C9.75 16.0074 8.74264 15 7.5 15V15.75Z" fill="#333333"/>
</svg>
