<svg width="24" height="24" viewBox="0 0 24 24" fill="none" xmlns="http://www.w3.org/2000/svg">
<circle cx="15.6314" cy="16.9899" r="1.76167" fill="#333333"/>
<ellipse cx="7.20076" cy="16.9899" rx="1.76167" ry="1.76167" fill="#333333"/>
<path d="M12.6885 5.25C13.4772 5.25015 13.8962 5.61963 13.9463 6.3584C13.9521 6.44378 14.0209 6.51346 14.1064 6.51367H16.0576C21.4993 6.51367 21.4973 13.4206 21.4971 14.334V14.3496C21.4971 15.192 20.5182 16.2012 19.6758 16.2012H18.1885C18.0827 16.2012 17.989 16.1349 17.9463 16.0381C17.4649 14.9478 16.4401 14.5167 15.6367 14.5166C15.1995 14.5166 14.7036 14.6336 14.2607 14.9209C14.0809 15.0376 13.9099 15.1829 13.7549 15.3594C13.5831 15.555 13.4305 15.7891 13.3086 16.0674C13.2736 16.1472 13.1965 16.2011 13.1094 16.2012H9.83398C9.69131 16.2012 9.56607 16.1108 9.50586 15.9814C9.10441 15.1168 8.22797 14.5166 7.21191 14.5166C6.19597 14.5167 5.32036 15.1169 4.91895 15.9814C4.85883 16.1107 4.73337 16.201 4.59082 16.2012H4.26367C3.42139 16.2012 3.00016 15.7806 3 14.9385V6.51367C3 5.67124 3.42124 5.25 4.26367 5.25H12.6885ZM14.793 7.6084C14.4545 7.6084 14.2608 7.75059 14.2607 8.09277V12.8379C14.2608 13.5964 14.3671 13.6894 14.6943 13.5693C14.8713 13.5044 15.2018 13.4219 15.6367 13.4219C16.4719 13.4219 17.4755 13.7462 18.2256 14.5166C18.2803 14.5728 18.4535 14.7674 18.5059 14.8252C18.702 15.0417 18.7435 15.1064 18.9463 15.1064H19.583C19.6041 15.1053 19.7344 15.0986 19.8164 15.0566C19.9101 15.0086 20.0179 14.9296 20.1201 14.8252C20.222 14.721 20.2999 14.6097 20.3486 14.5107C20.3989 14.4087 20.4 14.2806 20.4004 14.21C20.4005 14.1861 20.4004 14.1686 20.4023 14.1611C20.4025 13.714 20.3975 12.1025 19.791 10.46C19.4912 9.6481 19.0677 8.93768 18.4873 8.43555C17.9278 7.95162 17.1637 7.6084 16.0576 7.6084H14.793Z" fill="#333333"/>
</svg>
