<svg width="24" height="24" viewBox="0 0 24 24" fill="none" xmlns="http://www.w3.org/2000/svg">
<g clip-path="url(#clip0_1_112576)">
<circle cx="20.25" cy="3.75" r="2.25" fill="#308807"/>
<path d="M9.6145 3.00173C9.65657 3.00166 13.2151 2.99586 15.0002 3.01736C16.0264 3.02947 16.9303 3.98427 16.9348 5.02419C16.9433 7.24108 16.9442 9.45879 16.9348 11.6765C16.9303 12.7147 16.0179 13.6193 14.9944 13.6297C12.901 13.6496 10.8075 13.6388 8.71411 13.6414C8.42343 13.6414 8.13188 13.6308 7.84204 13.6472C7.74147 13.6533 7.62003 13.7511 7.55005 13.822C6.7994 14.5774 6.05888 15.3434 5.31079 16.1013C4.90138 16.5158 4.26068 16.4023 4.02173 15.8738C3.97657 15.7735 3.95609 15.6533 3.95435 15.5418C3.94752 14.9733 3.94667 14.4042 3.95435 13.8357C3.95602 13.6915 3.92245 13.6281 3.77271 13.5857C2.84801 13.3201 2.25127 12.4965 2.25122 11.5144C2.25207 9.39883 2.25049 7.28226 2.2522 5.1658C2.2539 4.09629 2.94263 3.24272 3.97485 3.03591C4.15387 2.99967 4.34238 3.00369 4.52563 3.00369C6.22159 3.00196 9.6145 3.00173 9.6145 3.00173ZM9.43188 10.4685C9.01875 10.4685 8.68384 10.8034 8.68384 11.2166C8.68384 11.6297 9.01875 11.9646 9.43188 11.9646C9.84493 11.9645 10.1799 11.6296 10.1799 11.2166C10.1799 10.8035 9.84493 10.4686 9.43188 10.4685ZM10.76 5.07205C9.99155 4.73379 9.2007 4.75082 8.42114 5.05349C7.83423 5.28193 7.49973 5.72358 7.40845 6.35525C7.37183 6.60861 7.44478 6.7091 7.69458 6.71951C7.93515 6.72989 8.17765 6.71945 8.41821 6.73416C8.66896 6.7497 8.83062 6.66475 8.927 6.41384C9.0439 6.1104 9.32406 5.96972 9.67017 6.00076C9.99007 6.02931 10.2168 6.21571 10.303 6.52029C10.4446 7.02043 10.2434 7.55243 9.78442 7.90115C9.58056 8.05602 9.37539 8.2117 9.18091 8.37869C8.89351 8.62528 8.71943 8.93826 8.68872 9.32498C8.67256 9.52643 8.75163 9.62463 8.94849 9.63162C9.11142 9.63767 9.27578 9.63248 9.43872 9.63162L9.4397 9.63064C9.61016 9.63064 9.77997 9.63323 9.95044 9.63064C10.0988 9.62798 10.1936 9.54947 10.2073 9.39724C10.2398 9.03571 10.4382 8.79233 10.7307 8.6072C10.8807 8.51213 11.0282 8.41204 11.1663 8.30056C12.2564 7.41369 12.0394 5.63633 10.76 5.07205Z" fill="#333333"/>
<path d="M19 8.5V8.5C20.1046 8.5 21 9.39543 21 10.5V16.0366C21 16.8448 20.3448 17.5 19.5366 17.5V17.5C19.5164 17.5 19.5 17.5164 19.5 17.5366V19.8964C19.5 20.1192 19.2307 20.2307 19.0732 20.0732L17.0858 18.0858C16.7107 17.7107 16.202 17.5 15.6716 17.5H9.5C8.67157 17.5 8 16.8284 8 16V16" stroke="#333333" stroke-width="1.5" stroke-linecap="round" stroke-linejoin="round"/>
<circle cx="8" cy="16" r="0.75" fill="#333333"/>
<circle cx="19" cy="8.5" r="0.75" fill="#333333"/>
</g>
<defs>
<clipPath id="clip0_1_112576">
<rect width="24" height="24" fill="white"/>
</clipPath>
</defs>
</svg>
