<svg width="24" height="24" viewBox="0 0 24 24" fill="none" xmlns="http://www.w3.org/2000/svg">
<path d="M7.5 20.5V13.5938V10.9375M7.5 3.5V10.9375M7.5 10.9375H9.5C10.0523 10.9375 10.5 10.4898 10.5 9.9375V3.5M7.5 10.9375H5.5C4.94772 10.9375 4.5 10.4898 4.5 9.9375V3.5M10.5 9.34375H7.5H4.5" stroke="#333333" stroke-width="1.75" stroke-linecap="round"/>
<path d="M14.5 16.25V3.65918C14.5 3.60483 14.5678 3.57999 14.6029 3.62146C17.4419 6.97309 19 11.2231 19 15.6156V16.1867C19 16.2217 18.9717 16.25 18.9367 16.25H14.5Z" fill="#333333"/>
<path d="M14.5 20.5V16.25M14.5 16.25V3.65918C14.5 3.60483 14.5678 3.57999 14.6029 3.62146V3.62146C17.4419 6.97309 19 11.2231 19 15.6156V16.1867C19 16.2217 18.9717 16.25 18.9367 16.25H14.5Z" stroke="#333333" stroke-width="1.75" stroke-linecap="round"/>
</svg>
