<svg width="24" height="24" viewBox="0 0 24 24" fill="none" xmlns="http://www.w3.org/2000/svg">
<path d="M22 12C22 11.779 21.9122 11.567 21.7559 11.4107C21.5996 11.2545 21.3877 11.1667 21.1667 11.1667H19.515C19.4737 11.1667 19.4334 11.1546 19.3991 11.1317C19.3647 11.1088 19.338 11.0762 19.3222 11.0381C19.3064 11 19.3022 10.958 19.3103 10.9176C19.3184 10.8771 19.3383 10.84 19.3675 10.8108L20.5058 9.6725C20.5854 9.59563 20.6489 9.50367 20.6926 9.402C20.7363 9.30033 20.7592 9.19098 20.7602 9.08033C20.7612 8.96968 20.7401 8.85995 20.6982 8.75754C20.6563 8.65512 20.5944 8.56208 20.5162 8.48384C20.4379 8.40559 20.3449 8.34372 20.2425 8.30182C20.14 8.25991 20.0303 8.23883 19.9197 8.23979C19.809 8.24075 19.6997 8.26374 19.598 8.30742C19.4963 8.35109 19.4044 8.41458 19.3275 8.49417L16.8992 10.9225C16.7429 11.0788 16.531 11.1666 16.31 11.1667H15.9767C15.888 11.1667 15.8016 11.1384 15.7301 11.0859C15.6587 11.0335 15.6058 10.9596 15.5792 10.875C15.5138 10.6653 15.4301 10.4617 15.3292 10.2667C15.288 10.1881 15.2731 10.0984 15.2864 10.0108C15.2997 9.92309 15.3407 9.84195 15.4033 9.77917L19.37 5.8125C19.5218 5.65533 19.6058 5.44483 19.6039 5.22633C19.602 5.00783 19.5144 4.79882 19.3598 4.64432C19.2053 4.48981 18.9963 4.40217 18.7778 4.40027C18.5593 4.39837 18.3488 4.48237 18.1917 4.63417L14.225 8.60083C14.1622 8.66347 14.0811 8.70444 13.9934 8.71777C13.9057 8.73111 13.8161 8.71613 13.7375 8.675C13.5424 8.57403 13.3389 8.49038 13.1292 8.425C13.0434 8.39901 12.9683 8.34606 12.915 8.274C12.8617 8.20194 12.8331 8.11462 12.8333 8.025V7.69167C12.8334 7.47067 12.9212 7.25874 13.0775 7.1025L15.5058 4.67417C15.6576 4.517 15.7416 4.3065 15.7397 4.088C15.7378 3.8695 15.6502 3.66049 15.4957 3.50598C15.3412 3.35148 15.1322 3.26384 14.9137 3.26194C14.6952 3.26004 14.4847 3.34403 14.3275 3.49583L13.1892 4.6325C13.16 4.66171 13.1229 4.68161 13.0824 4.68968C13.042 4.69775 13 4.69363 12.9619 4.67783C12.9238 4.66203 12.8912 4.63527 12.8683 4.60094C12.8454 4.56661 12.8333 4.52626 12.8333 4.485V2.83333C12.8333 2.61232 12.7455 2.40036 12.5893 2.24408C12.433 2.0878 12.221 2 12 2C11.779 2 11.567 2.0878 11.4107 2.24408C11.2545 2.40036 11.1667 2.61232 11.1667 2.83333V4.485C11.1667 4.52626 11.1546 4.56661 11.1317 4.60094C11.1088 4.63527 11.0762 4.66203 11.0381 4.67783C11 4.69363 10.958 4.69775 10.9176 4.68968C10.8771 4.68161 10.84 4.66171 10.8108 4.6325L9.6725 3.49417C9.51533 3.34237 9.30483 3.25837 9.08633 3.26027C8.86784 3.26217 8.65882 3.34981 8.50432 3.50432C8.34981 3.65882 8.26217 3.86783 8.26027 4.08633C8.25837 4.30483 8.34237 4.51533 8.49417 4.6725L10.9225 7.10083C11.0788 7.25708 11.1666 7.469 11.1667 7.69V8.02333C11.1667 8.112 11.1384 8.19836 11.0859 8.26985C11.0335 8.34134 10.9596 8.39423 10.875 8.42083C10.6653 8.48621 10.4617 8.56987 10.2667 8.67083C10.1881 8.71196 10.0984 8.72695 10.0108 8.71361C9.92309 8.70027 9.84195 8.6593 9.77917 8.59667L5.8125 4.63C5.65569 4.47374 5.44323 4.38618 5.22186 4.38657C5.00049 4.38696 4.78834 4.47527 4.63208 4.63208C4.47583 4.78889 4.38826 5.00135 4.38865 5.22272C4.38904 5.44409 4.47736 5.65624 4.63417 5.8125L8.60083 9.77917C8.66347 9.84195 8.70444 9.92309 8.71777 10.0108C8.73111 10.0984 8.71613 10.1881 8.675 10.2667C8.57403 10.4617 8.49038 10.6653 8.425 10.875C8.39827 10.96 8.345 11.0342 8.27301 11.0867C8.20102 11.1392 8.1141 11.1672 8.025 11.1667H7.69167C7.47067 11.1666 7.25874 11.0788 7.1025 10.9225L4.6725 8.49417C4.59563 8.41458 4.50367 8.35109 4.402 8.30742C4.30033 8.26374 4.19098 8.24075 4.08033 8.23979C3.96968 8.23883 3.85995 8.25991 3.75754 8.30182C3.65512 8.34372 3.56208 8.40559 3.48384 8.48384C3.40559 8.56208 3.34372 8.65512 3.30182 8.75754C3.25991 8.85995 3.23883 8.96968 3.23979 9.08033C3.24075 9.19098 3.26374 9.30033 3.30742 9.402C3.35109 9.50367 3.41457 9.59563 3.49417 9.6725L4.6325 10.8108C4.66171 10.84 4.68161 10.8771 4.68968 10.9176C4.69775 10.958 4.69363 11 4.67783 11.0381C4.66203 11.0762 4.63527 11.1088 4.60094 11.1317C4.56661 11.1546 4.52626 11.1667 4.485 11.1667H2.83333C2.61232 11.1667 2.40036 11.2545 2.24408 11.4107C2.0878 11.567 2 11.779 2 12C2 12.221 2.0878 12.433 2.24408 12.5893C2.40036 12.7455 2.61232 12.8333 2.83333 12.8333H4.485C4.52626 12.8333 4.56661 12.8454 4.60094 12.8683C4.63527 12.8912 4.66203 12.9238 4.67783 12.9619C4.69363 13 4.69775 13.042 4.68968 13.0824C4.68161 13.1229 4.66171 13.16 4.6325 13.1892L3.49417 14.3275C3.41457 14.4044 3.35109 14.4963 3.30742 14.598C3.26374 14.6997 3.24075 14.809 3.23979 14.9197C3.23883 15.0303 3.25991 15.14 3.30182 15.2425C3.34372 15.3449 3.40559 15.4379 3.48384 15.5162C3.56208 15.5944 3.65512 15.6563 3.75754 15.6982C3.85995 15.7401 3.96968 15.7612 4.08033 15.7602C4.19098 15.7592 4.30033 15.7363 4.402 15.6926C4.50367 15.6489 4.59563 15.5854 4.6725 15.5058L7.10083 13.0775C7.25708 12.9212 7.469 12.8334 7.69 12.8333H8.02333C8.112 12.8333 8.19836 12.8616 8.26985 12.9141C8.34134 12.9665 8.39423 13.0404 8.42083 13.125C8.48621 13.3347 8.56987 13.5383 8.67083 13.7333C8.71196 13.8119 8.72695 13.9016 8.71361 13.9892C8.70027 14.0769 8.6593 14.158 8.59667 14.2208L4.63 18.1875C4.55041 18.2644 4.48692 18.3563 4.44325 18.458C4.39957 18.5597 4.37659 18.669 4.37562 18.7797C4.37466 18.8903 4.39575 19 4.43765 19.1025C4.47955 19.2049 4.54143 19.2979 4.61967 19.3762C4.69791 19.4544 4.79096 19.5163 4.89337 19.5582C4.99579 19.6001 5.10552 19.6212 5.21617 19.6202C5.32682 19.6192 5.43617 19.5963 5.53784 19.5526C5.63951 19.5089 5.73146 19.4454 5.80833 19.3658L9.775 15.3992C9.83779 15.3365 9.91892 15.2956 10.0066 15.2822C10.0943 15.2689 10.1839 15.2839 10.2625 15.325C10.4576 15.426 10.6611 15.5096 10.8708 15.575C10.9554 15.6016 11.0293 15.6545 11.0818 15.726C11.1342 15.7975 11.1625 15.8838 11.1625 15.9725V16.3058C11.1625 16.5268 11.0746 16.7388 10.9183 16.895L8.49417 19.3275C8.41458 19.4044 8.35109 19.4963 8.30742 19.598C8.26374 19.6997 8.24075 19.809 8.23979 19.9197C8.23883 20.0303 8.25991 20.14 8.30182 20.2425C8.34372 20.3449 8.40559 20.4379 8.48384 20.5162C8.56208 20.5944 8.65512 20.6563 8.75754 20.6982C8.85995 20.7401 8.96968 20.7612 9.08033 20.7602C9.19098 20.7592 9.30033 20.7363 9.402 20.6926C9.50367 20.6489 9.59563 20.5854 9.6725 20.5058L10.8108 19.3675C10.84 19.3383 10.8771 19.3184 10.9176 19.3103C10.958 19.3022 11 19.3064 11.0381 19.3222C11.0762 19.338 11.1088 19.3647 11.1317 19.3991C11.1546 19.4334 11.1667 19.4737 11.1667 19.515V21.1667C11.1667 21.3877 11.2545 21.5996 11.4107 21.7559C11.567 21.9122 11.779 22 12 22C12.221 22 12.433 21.9122 12.5893 21.7559C12.7455 21.5996 12.8333 21.3877 12.8333 21.1667V19.515C12.8333 19.4737 12.8454 19.4334 12.8683 19.3991C12.8912 19.3647 12.9238 19.338 12.9619 19.3222C13 19.3064 13.042 19.3022 13.0824 19.3103C13.1229 19.3184 13.16 19.3383 13.1892 19.3675L14.3275 20.5058C14.4847 20.6576 14.6952 20.7416 14.9137 20.7397C15.1322 20.7378 15.3412 20.6502 15.4957 20.4957C15.6502 20.3412 15.7378 20.1322 15.7397 19.9137C15.7416 19.6952 15.6576 19.4847 15.5058 19.3275L13.0775 16.8992C12.9212 16.7429 12.8334 16.531 12.8333 16.31V15.9767C12.8333 15.888 12.8616 15.8016 12.9141 15.7301C12.9665 15.6587 13.0404 15.6058 13.125 15.5792C13.3347 15.5138 13.5383 15.4301 13.7333 15.3292C13.8119 15.288 13.9016 15.2731 13.9892 15.2864C14.0769 15.2997 14.158 15.3407 14.2208 15.4033L18.1875 19.37C18.3447 19.5218 18.5552 19.6058 18.7737 19.6039C18.9922 19.602 19.2012 19.5144 19.3557 19.3598C19.5102 19.2053 19.5978 18.9963 19.5997 18.7778C19.6016 18.5593 19.5176 18.3488 19.3658 18.1917L15.3992 14.225C15.3365 14.1622 15.2956 14.0811 15.2822 13.9934C15.2689 13.9057 15.2839 13.8161 15.325 13.7375C15.4258 13.5424 15.5095 13.3388 15.575 13.1292C15.601 13.0434 15.6539 12.9683 15.726 12.915C15.7981 12.8617 15.8854 12.8331 15.975 12.8333H16.3083C16.5293 12.8334 16.7413 12.9212 16.8975 13.0775L19.3258 15.5058C19.483 15.6576 19.6935 15.7416 19.912 15.7397C20.1305 15.7378 20.3395 15.6502 20.494 15.4957C20.6485 15.3412 20.7362 15.1322 20.7381 14.9137C20.74 14.6952 20.656 14.4847 20.5042 14.3275L19.3658 13.1892C19.3365 13.1599 19.3166 13.1226 19.3086 13.082C19.3005 13.0414 19.3048 12.9993 19.3208 12.9611C19.3368 12.9229 19.3638 12.8904 19.3984 12.8676C19.433 12.8449 19.4736 12.8329 19.515 12.8333H21.1667C21.3877 12.8333 21.5996 12.7455 21.7559 12.5893C21.9122 12.433 22 12.221 22 12ZM12 14.0833C11.588 14.0833 11.1852 13.9611 10.8426 13.7322C10.5 13.5033 10.2329 13.1779 10.0753 12.7973C9.91757 12.4166 9.87631 11.9977 9.9567 11.5936C10.0371 11.1894 10.2355 10.8182 10.5269 10.5269C10.8182 10.2355 11.1894 10.0371 11.5936 9.9567C11.9977 9.87631 12.4166 9.91757 12.7973 10.0753C13.1779 10.2329 13.5033 10.5 13.7322 10.8426C13.9611 11.1852 14.0833 11.588 14.0833 12C14.0833 12.5525 13.8638 13.0824 13.4731 13.4731C13.0824 13.8638 12.5525 14.0833 12 14.0833Z" fill="#333333"/>
</svg>
