<svg width="24" height="24" viewBox="0 0 24 24" fill="none" xmlns="http://www.w3.org/2000/svg">
<path d="M13 11.7273C13 11.7996 13.0343 11.869 13.0954 11.9201C13.1564 11.9713 13.2392 12 13.3256 12H18.8605C19.1625 11.9996 19.4521 11.8989 19.6657 11.7199C19.8793 11.541 19.9995 11.2985 20 11.0455V9.95455C19.9997 9.70147 19.8795 9.45885 19.6659 9.2799C19.4522 9.10095 19.1626 9.00029 18.8605 9H13.3256C13.2392 9 13.1564 9.02873 13.0954 9.07988C13.0343 9.13103 13 9.2004 13 9.27273V11.7273Z" fill="#333333"/>
<path d="M6.17778 12H10.6889C10.7714 12 10.8505 11.9713 10.9089 11.9201C10.9672 11.869 11 11.7996 11 11.7273V9.27273C11 9.2004 10.9672 9.13103 10.9089 9.07988C10.8505 9.02873 10.7714 9 10.6889 9H5.08889C4.8002 9.00029 4.52343 9.10095 4.31929 9.2799C4.11516 9.45885 4.00033 9.70147 4 9.95455V11.0455C4.00049 11.2985 4.11537 11.541 4.31947 11.7199C4.52357 11.8989 4.80025 11.9996 5.08889 12H6.17778Z" fill="#333333"/>
<path d="M11 14.35C11 14.2572 10.9658 14.1682 10.905 14.1025C10.8442 14.0369 10.7617 14 10.6757 14H5.32432C5.23831 14 5.15582 14.0369 5.09499 14.1025C5.03417 14.1682 5 14.2572 5 14.35V19.775C5.00051 20.0997 5.12027 20.411 5.33304 20.6406C5.54581 20.8702 5.83424 20.9994 6.13514 21H10.6757C10.7617 21 10.8442 20.9631 10.905 20.8975C10.9658 20.8318 11 20.7428 11 20.65V14.35Z" fill="#333333"/>
<path d="M13.3429 14C13.2519 14 13.1647 14.0369 13.1004 14.1025C13.0361 14.1682 13 14.2572 13 14.35V20.65C13 20.7428 13.0361 20.8318 13.1004 20.8975C13.1647 20.9631 13.2519 21 13.3429 21H17.8C18.1181 20.9994 18.423 20.8702 18.6479 20.6406C18.8729 20.411 18.9995 20.0997 19 19.775V14.35C19 14.2572 18.9639 14.1682 18.8996 14.1025C18.8353 14.0369 18.7481 14 18.6571 14H13.3429Z" fill="#333333"/>
<path d="M11.9219 8.6072C12.0254 8.70831 11.8512 8.92593 11.9945 8.92593C12.1377 8.92593 12.6562 8.85328 12.7982 8.81919C13.8053 8.57801 16.2291 7.9396 16.9698 7.21356C17.4418 6.7502 17.7067 6.12202 17.7062 5.46721C17.7057 4.81239 17.4399 4.18459 16.9672 3.7219C16.4945 3.2592 15.8537 2.99953 15.1857 3C14.5176 3.00047 13.8772 3.26104 13.4052 3.7244C12.7607 4.35614 12.146 6.29224 11.7672 7.81358C11.7364 7.95284 11.741 8.09738 11.7807 8.23448C11.8203 8.37157 11.8211 8.50448 11.9219 8.6072ZM14.6115 4.90442C14.6865 4.82729 14.7764 4.76563 14.876 4.72307C14.9756 4.68052 15.0829 4.65792 15.1916 4.65663C15.3002 4.65533 15.4081 4.67535 15.5087 4.71551C15.6093 4.75567 15.7008 4.81516 15.7776 4.89048C15.8545 4.9658 15.9151 5.05543 15.9561 5.15409C15.9971 5.25274 16.0175 5.35844 16.0162 5.46495C16.0149 5.57146 15.9918 5.67663 15.9484 5.77428C15.905 5.87193 15.8421 5.96008 15.7634 6.03354C15.1548 6.37918 14.0867 7.04314 13.4052 7.21356C13.578 6.54501 14.2585 5.501 14.6115 4.90442Z" fill="#333333"/>
<path d="M12.2281 7.80965C11.8501 6.29332 11.2354 4.35638 10.5927 3.72381C10.1207 3.26067 9.48028 3.00031 8.81243 3C8.14458 2.99969 7.50396 3.25945 7.03149 3.72214C6.55902 4.18483 6.29341 4.81255 6.29309 5.46721C6.29277 6.12186 6.55777 6.74983 7.02978 7.21297C7.76875 7.939 10.1925 8.57742 11.2014 8.8186C11.3433 8.85269 11.871 8.92606 12.0051 8.92606C12.1391 8.92606 11.9016 8.70023 12.0051 8.59912C12.1056 8.49566 12.1786 8.36948 12.2175 8.23177C12.2564 8.09407 12.26 7.94908 12.2281 7.80965ZM8.23444 6.03294C8.15881 5.95886 8.0988 5.8709 8.05785 5.77408C8.01689 5.67727 7.9958 5.57349 7.99576 5.46868C7.99572 5.36387 8.01674 5.26008 8.05762 5.16324C8.0985 5.06639 8.15844 4.97839 8.23402 4.90425C8.30959 4.83011 8.39933 4.77129 8.49809 4.73114C8.59686 4.691 8.70273 4.67032 8.80965 4.67028C9.02559 4.6702 9.23271 4.75421 9.38546 4.90383C9.73887 5.50022 10.4203 6.54429 10.5927 7.21297C9.9111 7.04343 8.84233 6.37941 8.23444 6.03294Z" fill="#333333"/>
</svg>
