<svg width="24" height="24" viewBox="0 0 24 24" fill="none" xmlns="http://www.w3.org/2000/svg">
<path fill-rule="evenodd" clip-rule="evenodd" d="M19.2581 9.53299C19.2581 7.49339 17.6604 6.18152 16.0148 6.18424C14.9993 6.18592 13.8687 6.68989 13.0299 8.04213C12.5673 8.78779 11.4327 8.78779 10.9701 8.04213C10.1313 6.6899 9.00069 6.18596 7.98522 6.18428C6.33958 6.18156 4.74194 7.49343 4.74194 9.53303C4.74194 11.427 5.71909 13.1793 7.14554 14.7701C8.56942 16.358 10.3583 17.6941 11.8248 18.759C11.9291 18.8347 12.0709 18.8347 12.1752 18.759C13.6417 17.6941 15.4306 16.358 16.8545 14.7701C18.2809 13.1793 19.2581 11.4269 19.2581 9.53299ZM16.0118 4.50001C18.6161 4.4957 21 6.55767 21 9.53299C21 12.0042 19.727 14.1377 18.1706 15.8733C16.6117 17.6119 14.6851 19.0428 13.2212 20.1058C12.4973 20.6314 11.5027 20.6314 10.7788 20.1058C9.3149 19.0428 7.38831 17.6119 5.82939 15.8734C4.27302 14.1377 3 12.0043 3 9.53303C3 6.55771 5.38393 4.49574 7.9882 4.50005C9.44952 4.50246 10.9053 5.15381 12 6.51837C13.0946 5.15381 14.5505 4.50242 16.0118 4.50001Z" fill="#333333"/>
</svg>
