<svg width="24" height="24" viewBox="0 0 24 24" fill="none" xmlns="http://www.w3.org/2000/svg">
<path d="M19.5001 13.125C19.5001 12.7108 19.1643 12.375 18.7501 12.375C18.3358 12.375 18.0001 12.7108 18.0001 13.125H19.5001ZM6.00005 13.125C6.00005 12.7108 5.66427 12.375 5.25005 12.375C4.83584 12.375 4.50005 12.7108 4.50005 13.125H6.00005ZM18.8195 6.49437L19.5261 6.24304L19.5258 6.24212L18.8195 6.49437ZM5.18064 6.49437L5.88694 6.74662L5.18064 6.49437ZM19.434 8.22223L20.1468 7.98878C20.1448 7.98279 20.1428 7.97683 20.1407 7.9709L19.434 8.22223ZM4.57037 8.20312L3.86406 7.95087C3.86171 7.95744 3.85946 7.96405 3.85729 7.97068L4.57037 8.20312ZM8.2916 9.49884L8.99776 9.2462C8.89104 8.94791 8.6084 8.74884 8.2916 8.74884C7.97479 8.74884 7.69215 8.94791 7.58543 9.2462L8.2916 9.49884ZM12 9.49884L12.7062 9.2462C12.5995 8.94791 12.3168 8.74884 12 8.74884C11.6832 8.74884 11.4006 8.94791 11.2939 9.2462L12 9.49884ZM15.7085 9.49884L16.4146 9.2462C16.3079 8.94791 16.0253 8.74884 15.7085 8.74884C15.3917 8.74884 15.109 8.94791 15.0023 9.2462L15.7085 9.49884ZM18.7501 13.125H18.0001V16.875H18.7501H19.5001V13.125H18.7501ZM16.8751 18.75V18H7.12505V18.75V19.5H16.8751V18.75ZM5.25005 16.875H6.00005V13.125H5.25005H4.50005V16.875H5.25005ZM7.12505 18.75V18C6.50373 18 6.00005 17.4963 6.00005 16.875H5.25005H4.50005C4.50005 18.3247 5.67531 19.5 7.12505 19.5V18.75ZM18.7501 16.875H18.0001C18.0001 17.4963 17.4964 18 16.8751 18V18.75V19.5C18.3248 19.5 19.5001 18.3247 19.5001 16.875H18.7501ZM6.43738 10.8043V10.0543C5.76428 10.0543 5.21863 9.50864 5.21863 8.83554H4.46863H3.71863C3.71863 10.3371 4.93585 11.5543 6.43738 11.5543V10.8043ZM19.5314 8.83554H18.7814C18.7814 9.50864 18.2358 10.0543 17.5627 10.0543V10.8043V11.5543C19.0642 11.5543 20.2814 10.3371 20.2814 8.83554H19.5314ZM17.0537 5.25V4.5H6.9464V5.25V6H17.0537V5.25ZM18.8195 6.49437L19.5258 6.24212C19.1527 5.19739 18.1631 4.5 17.0537 4.5V5.25V6C17.5291 6 17.9533 6.29888 18.1132 6.74662L18.8195 6.49437ZM6.9464 5.25V4.5C5.83704 4.5 4.84745 5.19739 4.47433 6.24212L5.18064 6.49437L5.88694 6.74662C6.04685 6.29888 6.47096 6 6.9464 6V5.25ZM19.434 8.22223L18.7213 8.45568C18.7601 8.57427 18.7814 8.70167 18.7814 8.83554H19.5314H20.2814C20.2814 8.54113 20.2344 8.25622 20.1468 7.98878L19.434 8.22223ZM18.8195 6.49437L18.1128 6.7457L18.7274 8.47356L19.434 8.22223L20.1407 7.9709L19.5261 6.24304L18.8195 6.49437ZM5.18064 6.49437L4.47433 6.24212L3.86406 7.95087L4.57037 8.20312L5.27667 8.45538L5.88694 6.74662L5.18064 6.49437ZM10.1458 10.8043V10.0543C9.61797 10.0543 9.16667 9.71833 8.99776 9.2462L8.2916 9.49884L7.58543 9.75148C7.96102 10.8013 8.96452 11.5543 10.1458 11.5543V10.8043ZM8.2916 9.49884L7.58543 9.2462C7.41652 9.71833 6.96522 10.0543 6.43738 10.0543V10.8043V11.5543C7.61867 11.5543 8.62218 10.8013 8.99776 9.75148L8.2916 9.49884ZM13.8542 10.8043V10.0543C13.3264 10.0543 12.8751 9.71833 12.7062 9.2462L12 9.49884L11.2939 9.75148C11.6695 10.8013 12.673 11.5543 13.8542 11.5543V10.8043ZM12 9.49884L11.2939 9.2462C11.125 9.71833 10.6737 10.0543 10.1458 10.0543V10.8043V11.5543C11.3271 11.5543 12.3306 10.8013 12.7062 9.75148L12 9.49884ZM17.5627 10.8043V10.0543C17.0348 10.0543 16.5835 9.71833 16.4146 9.2462L15.7085 9.49884L15.0023 9.75148C15.3779 10.8013 16.3814 11.5543 17.5627 11.5543V10.8043ZM15.7085 9.49884L15.0023 9.2462C14.8334 9.71833 14.3821 10.0543 13.8542 10.0543V10.8043V11.5543C15.0355 11.5543 16.039 10.8013 16.4146 9.75148L15.7085 9.49884ZM4.46863 8.83554H5.21863C5.21863 8.70614 5.24369 8.5575 5.28344 8.43557L4.57037 8.20312L3.85729 7.97068C3.7717 8.23326 3.71863 8.5386 3.71863 8.83554H4.46863Z" fill="#333333"/>
</svg>
