<svg width="24" height="24" viewBox="0 0 24 24" fill="none" xmlns="http://www.w3.org/2000/svg">
<path d="M17.375 19.5V16.875C17.3741 15.8259 17.0594 14.8011 16.4713 13.9323C15.8832 13.0636 15.0487 12.3906 14.075 12C15.0486 11.6093 15.8831 10.9363 16.4712 10.0676C17.0592 9.19885 17.374 8.17407 17.375 7.125V4.5C17.5739 4.5 17.7647 4.42098 17.9053 4.28033C18.046 4.13968 18.125 3.94891 18.125 3.75C18.125 3.55109 18.046 3.36032 17.9053 3.21967C17.7647 3.07902 17.5739 3 17.375 3H6.875C6.67609 3 6.48532 3.07902 6.34467 3.21967C6.20402 3.36032 6.125 3.55109 6.125 3.75C6.125 3.94891 6.20402 4.13968 6.34467 4.28033C6.48532 4.42098 6.67609 4.5 6.875 4.5V7.125C6.876 8.17407 7.19077 9.19885 7.77884 10.0676C8.36691 10.9363 9.2014 11.6093 10.175 12C9.20134 12.3906 8.3668 13.0636 7.77871 13.9323C7.19063 14.8011 6.8759 15.8259 6.875 16.875V19.5C6.67609 19.5 6.48532 19.579 6.34467 19.7197C6.20402 19.8603 6.125 20.0511 6.125 20.25C6.125 20.4489 6.20402 20.6397 6.34467 20.7803C6.48532 20.921 6.67609 21 6.875 21H17.375C17.5739 21 17.7647 20.921 17.9053 20.7803C18.046 20.6397 18.125 20.4489 18.125 20.25C18.125 20.0511 18.046 19.8603 17.9053 19.7197C17.7647 19.579 17.5739 19.5 17.375 19.5ZM9.2675 8.19C9.33044 8.06715 9.42607 7.96406 9.54384 7.89207C9.66161 7.82009 9.79697 7.782 9.935 7.782H14.315C14.453 7.7821 14.5882 7.82026 14.7059 7.89228C14.8236 7.9643 14.9191 8.06739 14.982 8.1902C15.0449 8.31301 15.0727 8.45078 15.0623 8.58837C15.0519 8.72595 15.0038 8.858 14.9233 8.97C14.6045 9.41455 14.1844 9.77676 13.6978 10.0266C13.2112 10.2765 12.672 10.4068 12.125 10.4068C11.578 10.4068 11.0388 10.2765 10.5522 10.0266C10.0656 9.77676 9.64551 9.41455 9.32675 8.97C9.24606 8.85803 9.19783 8.72596 9.18738 8.58834C9.17693 8.45072 9.20465 8.31288 9.2675 8.19ZM9.065 16.9725L11.348 14.7705C11.5608 14.5782 11.8374 14.4718 12.1242 14.4718C12.4111 14.4718 12.6877 14.5782 12.9005 14.7705L15.1827 16.9718C15.342 17.1228 15.4478 17.3216 15.4842 17.538C15.5206 17.7545 15.4856 17.9769 15.3845 18.1718C15.2901 18.3479 15.1494 18.4948 14.9776 18.5968C14.8057 18.6987 14.6093 18.7517 14.4095 18.75H9.84275C9.64348 18.7523 9.44736 18.7001 9.27555 18.5991C9.10374 18.4981 8.96274 18.3522 8.86775 18.177C8.76538 17.982 8.72927 17.7591 8.76485 17.5417C8.80044 17.3244 8.9058 17.1246 9.065 16.9725Z" fill="#333333"/>
</svg>
