<svg width="24" height="24" viewBox="0 0 24 24" fill="none" xmlns="http://www.w3.org/2000/svg">
<path d="M20.2529 8.38221C20.2529 17.3961 11.2383 20.3392 6.75295 16.8982C6.3042 17.4989 5.93522 18.6401 5.93522 20.4078C5.93522 21.2659 5.46326 21.6178 5.0857 21.6178C4.43654 21.6178 3.74707 20.9313 3.74707 20.1761C3.74707 18.0052 4.80253 15.2936 7.99255 13.5075C12.02 11.7257 15.353 10.7419 15.353 8.38221C15.353 8.20251 15.265 8.07786 15.1084 8.08142C14.8506 8.06189 14.7477 9.05503 13.3233 9.84314C10.3547 11.4855 7.78354 11.3125 5.37545 13.445C5.14681 13.6475 4.78834 13.6233 4.65702 13.3476C4.41056 12.83 4.25295 12.1598 4.25295 11.3822C4.25295 7.8822 6.75295 5.3822 10.7529 5.3822C14.3307 5.3822 17.1085 4.18216 18.3706 2.85544C18.5881 2.62684 18.959 2.5949 19.1248 2.86338C19.8769 4.08156 20.2529 6.34794 20.2529 8.38221Z" fill="#333333"/>
</svg>
