<svg width="24" height="24" viewBox="0 0 24 24" fill="none" xmlns="http://www.w3.org/2000/svg">
<path d="M18.8086 2.99994C20.0188 2.99994 21 3.9811 21 5.19135V18.8085C21 20.0188 20.0188 20.9999 18.8086 20.9999H5.19141C3.98116 20.9999 3 20.0188 3 18.8085V5.19135C3 3.9811 3.98116 2.99994 5.19141 2.99994H18.8086ZM16.5752 12.2656C14.9347 12.2656 13.6016 13.3152 13.6016 15.1357C13.6016 16.0047 13.9073 16.6996 14.4023 17.1855C14.4237 17.206 14.4435 17.2256 14.4648 17.247C14.4685 17.2479 14.4711 17.2521 14.4756 17.2558C14.9475 17.6932 15.5738 17.9455 16.2695 17.9931H16.2715C16.2976 17.9968 16.3223 17.9971 16.3428 17.999C16.4202 18.0046 16.4959 18.0068 16.5752 18.0068C16.8557 18.0068 17.1222 17.9662 17.3701 17.8945C17.8131 17.7732 18.1982 17.5636 18.5293 17.2792C18.5572 17.2532 18.5883 17.2275 18.54 17.1494C18.4925 17.0552 18.3629 16.8012 18.1719 16.5244C18.0562 16.3518 17.9495 16.2115 17.8525 16.121C17.7548 16.0317 17.7344 16.0645 17.6367 16.1269C17.5229 16.1968 17.3833 16.2708 17.2686 16.3203C17.0795 16.4022 16.8772 16.4459 16.6816 16.4599C15.9337 16.5103 15.271 16.0476 15.2168 15.2167C15.2159 15.1983 15.213 15.1443 15.2129 15.1357C15.2129 14.3038 15.8401 13.8027 16.5918 13.8027C16.9032 13.8027 17.2418 13.8919 17.5225 14.0634C17.6446 14.1371 17.6451 14.1478 17.7412 14.0536C17.8829 13.8989 17.9739 13.7771 18.083 13.6074C18.2693 13.3269 18.3741 13.0932 18.418 12.998C18.4506 12.929 18.4254 12.8905 18.3965 12.8681C17.892 12.4904 17.2606 12.2656 16.5752 12.2656ZM6.54199 12.3837C5.93475 12.3847 5.90922 12.4205 5.87012 12.4531C5.83747 12.4773 5.83496 12.5146 5.83496 12.5146C5.80701 12.6777 5.79692 14.196 5.79785 15.1796C5.79692 16.1636 5.80694 17.6181 5.83398 17.7831C5.83409 17.7855 5.83679 17.8184 5.86914 17.8427C5.90821 17.8744 5.93508 17.9112 6.54102 17.913H6.66113C7.26662 17.9111 7.29392 17.8744 7.33398 17.8427C7.36156 17.8187 7.36763 17.7861 7.36816 17.7831C7.39521 17.619 7.40905 16.2037 7.40625 15.2216C7.45557 15.3044 8.96001 17.7849 8.98633 17.8203C8.99003 17.8277 8.99672 17.8362 9.00684 17.8427C9.04787 17.8744 9.07444 17.9112 9.68066 17.913H9.80078C10.407 17.9112 10.4306 17.8744 10.4707 17.8427C10.5029 17.8185 10.5048 17.7857 10.5049 17.7831C10.5329 17.6171 10.5448 16.1665 10.543 15.1816C10.5467 14.2006 10.5348 12.6773 10.5059 12.5146C10.5059 12.5146 10.5051 12.4773 10.4717 12.4531C10.4316 12.4204 10.407 12.3847 9.80176 12.3837H9.68164C9.07542 12.3847 9.04885 12.4204 9.00781 12.4531C8.97729 12.4773 8.97363 12.5146 8.97363 12.5146C8.94567 12.6774 8.93462 14.1997 8.93555 15.1816V15.2021C8.75281 14.887 8.5959 14.598 8.20996 13.9492C8.00761 13.6079 7.72484 13.1489 7.3584 12.4785C7.35001 12.4719 7.34047 12.4605 7.33301 12.4531C7.29291 12.4204 7.26598 12.3847 6.66016 12.3837H6.54199ZM12.0879 13.3954C11.4809 13.3955 11.4533 13.4283 11.417 13.4609C11.3825 13.4861 11.3809 13.5204 11.3809 13.5204C11.3529 13.6857 11.339 14.6675 11.3428 15.6503C11.34 16.6352 11.3529 17.6162 11.3809 17.7822C11.3811 17.7863 11.3848 17.8182 11.417 17.8417C11.4532 17.8734 11.4823 17.9092 12.0879 17.9111H12.208C12.8148 17.9092 12.8419 17.8734 12.8838 17.8417C12.9107 17.8183 12.9137 17.7865 12.9141 17.7822C12.9439 17.6162 12.9569 16.6352 12.9531 15.6503C12.9559 14.6665 12.9429 13.6855 12.9131 13.5204C12.913 13.5197 12.9113 13.4867 12.8828 13.4609C12.8408 13.4282 12.8133 13.3954 12.207 13.3954H12.0879ZM12.1484 11.1435C11.7056 11.1436 11.3429 11.5063 11.3428 11.9492C11.3428 12.393 11.7064 12.7547 12.1484 12.7548C12.5914 12.7548 12.9531 12.394 12.9531 11.9492C12.953 11.5063 12.5914 11.1435 12.1484 11.1435ZM16.5732 5.89154C14.932 5.89164 13.6007 6.9404 13.6006 8.76068C13.6006 9.62982 13.9062 10.3256 14.4014 10.8124C14.4228 10.8329 14.4425 10.8525 14.4639 10.872C14.4675 10.8729 14.4692 10.878 14.4736 10.8808C14.9455 11.3201 15.5718 11.5715 16.2676 11.6191H16.2705C16.2964 11.6219 16.3204 11.6231 16.3408 11.6249C16.4182 11.6296 16.4941 11.6327 16.5732 11.6328C16.854 11.6328 17.1211 11.5932 17.3691 11.5204C17.8121 11.402 18.1973 11.1915 18.5283 10.9052C18.5572 10.881 18.5876 10.8565 18.5391 10.7753C18.4914 10.6828 18.3619 10.428 18.1709 10.1503C18.0555 9.97719 17.9494 9.83744 17.8525 9.74701C17.7547 9.65939 17.7335 9.69134 17.6357 9.75189C17.522 9.82273 17.3832 9.89684 17.2686 9.9472C17.0792 10.0293 16.8765 10.0729 16.6807 10.0869C15.9327 10.1325 15.2709 9.67359 15.2168 8.84076C15.2158 8.82267 15.2129 8.76809 15.2129 8.76068C15.213 7.92998 15.8394 7.42784 16.5908 7.42767C16.9023 7.42767 17.2417 7.51961 17.5225 7.68842C17.6443 7.76097 17.6443 7.77178 17.7402 7.67767C17.8818 7.52211 17.973 7.40185 18.082 7.23138C18.2686 6.95439 18.3732 6.71803 18.417 6.62103C18.4495 6.55308 18.4244 6.51737 18.3955 6.49408C17.891 6.11637 17.2587 5.89154 16.5732 5.89154ZM7.74805 5.98041C7.29758 5.97108 6.20707 5.99841 5.95898 6.02826C5.90024 6.03759 5.84704 6.05336 5.83398 6.12982C5.80513 6.28488 5.79692 7.70832 5.79785 8.69232V9.07025C5.79785 10.0299 5.80881 11.2356 5.83398 11.3886C5.83398 11.3886 5.83491 11.4231 5.86816 11.4492C5.90733 11.4809 5.93392 11.5137 6.54102 11.5156H6.66016C7.26731 11.5128 7.29481 11.4799 7.33398 11.4492C7.36234 11.4235 7.36799 11.3896 7.36816 11.3886C7.37935 11.3252 7.38605 11.0679 7.39258 10.7304C7.52594 10.7369 7.63795 10.7392 7.74707 10.7392C9.59925 10.7392 10.6934 9.92216 10.6934 8.39545V8.35931H10.6943V8.32318C10.672 6.72094 9.62258 6.01868 7.74805 5.98041ZM12.0879 5.9765C11.4813 5.97651 11.4532 6.01218 11.417 6.04291C11.3836 6.06907 11.381 6.10045 11.3809 6.10248C11.3529 6.26849 11.34 7.26014 11.3428 8.24408C11.339 9.22769 11.3529 10.2066 11.3809 10.3749C11.3809 10.3749 11.3825 10.4112 11.417 10.4355C11.4533 10.4681 11.4808 10.5001 12.0879 10.5029H12.207C12.8133 10.5001 12.8408 10.4681 12.8828 10.4355C12.9116 10.4112 12.9131 10.3749 12.9131 10.3749C12.9429 10.2079 12.9559 9.22791 12.9531 8.24408C12.9569 7.26014 12.9439 6.26849 12.9141 6.10248C12.9139 6.10013 12.9115 6.0689 12.8838 6.04291C12.8418 6.01213 12.8152 5.9765 12.208 5.9765H12.0879ZM7.87891 7.46967C8.64528 7.48188 9.08926 7.74495 9.09766 8.34174V8.36713C9.08913 8.96278 8.64516 9.22601 7.87891 9.23822C7.64388 9.24382 7.52932 9.23192 7.40527 9.2226V7.48138C7.52558 7.47113 7.66253 7.46314 7.87891 7.46967Z" fill="#333333"/>
</svg>
