<svg width="24" height="24" viewBox="0 0 24 24" fill="none" xmlns="http://www.w3.org/2000/svg">
<g clip-path="url(#clip0_1_112651)">
<g clip-path="url(#clip1_1_112651)">
<path d="M11.5586 3.15504C11.8185 2.94832 12.1814 2.94832 12.4414 3.15504L19.7168 9.15992C20.2635 9.59533 19.9657 10.4998 19.2754 10.4998H17C13.4101 10.4998 10.5 13.4099 10.5 16.9998C10.5 18.0821 10.7655 19.1021 11.2334 19.9998H5.85254C5.65293 19.9996 5.49121 19.8321 5.49121 19.6257V10.4998H4.72461C4.03426 10.4998 3.7365 9.59533 4.2832 9.15992L11.5586 3.15504Z" fill="#333333"/>
<path d="M13.4645 13.4645C15.4171 11.5118 18.5829 11.5118 20.5356 13.4645C22.4882 15.4171 22.4882 18.5829 20.5356 20.5355C18.5829 22.4882 15.4171 22.4882 13.4645 20.5355C11.5119 18.5829 11.5119 15.4171 13.4645 13.4645ZM15.1618 15.1618C14.9279 15.396 14.9279 15.7755 15.1618 16.0098L16.0106 16.8586C16.0887 16.9367 16.0887 17.0633 16.0106 17.1414L15.1618 17.9902C14.9279 18.2245 14.9279 18.604 15.1618 18.8382C15.3961 19.0721 15.7756 19.0721 16.0098 18.8382L16.8586 17.9894C16.9367 17.9113 17.0633 17.9113 17.1414 17.9894L17.9902 18.8382L18.0842 18.9155C18.3169 19.0689 18.6333 19.0428 18.8382 18.8382C19.0429 18.6333 19.069 18.3169 18.9156 18.0841L18.8382 17.9902L17.9894 17.1414C17.9113 17.0633 17.9113 16.9367 17.9894 16.8586L18.8382 16.0098L18.9156 15.9159C19.069 15.6831 19.0429 15.3667 18.8382 15.1618C18.6333 14.9572 18.3169 14.9312 18.0842 15.0845L17.9902 15.1618L17.1414 16.0106C17.0633 16.0887 16.9367 16.0887 16.8586 16.0106L16.0098 15.1618C15.7756 14.9279 15.3961 14.9279 15.1618 15.1618Z" fill="#333333"/>
</g>
</g>
<defs>
<clipPath id="clip0_1_112651">
<rect width="24" height="24" fill="white"/>
</clipPath>
<clipPath id="clip1_1_112651">
<rect width="24" height="24" fill="white"/>
</clipPath>
</defs>
</svg>
