<svg width="24" height="24" viewBox="0 0 24 24" fill="none" xmlns="http://www.w3.org/2000/svg">
<path fill-rule="evenodd" clip-rule="evenodd" d="M18.0282 3.44019C17.8886 3.3817 17.7347 3.36615 17.5862 3.39552C17.4377 3.42489 17.3013 3.49784 17.1946 3.60504L16.7236 4.07592C16.6875 4.11143 16.6389 4.13135 16.5882 4.13135C16.5376 4.13135 16.4889 4.11143 16.4529 4.07592L15.5995 3.22345C15.4561 3.08037 15.2616 3 15.0588 3C14.8561 3 14.6616 3.08037 14.5182 3.22345L13.6648 4.07592C13.6287 4.11143 13.5801 4.13135 13.5294 4.13135C13.4787 4.13135 13.4301 4.11143 13.3941 4.07592L12.5406 3.22345C12.3972 3.08037 12.2028 3 12 3C11.7972 3 11.6028 3.08037 11.4594 3.22345L10.6059 4.07592C10.5699 4.11143 10.5213 4.13135 10.4706 4.13135C10.4199 4.13135 10.3713 4.11143 10.3352 4.07592L9.48182 3.22345C9.33842 3.08037 9.14395 3 8.94118 3C8.7384 3 8.54393 3.08037 8.40053 3.22345L7.54712 4.07516C7.52941 4.09302 7.50833 4.10719 7.4851 4.11687C7.46187 4.12655 7.43694 4.13153 7.41177 4.13153C7.38659 4.13153 7.36167 4.12655 7.33843 4.11687C7.3152 4.10719 7.29412 4.09302 7.27641 4.07516L6.80612 3.60504C6.69921 3.49808 6.5629 3.42519 6.41446 3.3956C6.26601 3.36602 6.1121 3.38107 5.97223 3.43885C5.83237 3.49663 5.71283 3.59454 5.62876 3.72018C5.54469 3.84582 5.49988 3.99353 5.5 4.14461L5.5 19.8554C5.50003 20.0063 5.5449 20.1538 5.62893 20.2793C5.71296 20.4048 5.83238 20.5026 5.97209 20.5603C6.1118 20.6181 6.26553 20.6332 6.41385 20.6038C6.56217 20.5743 6.69841 20.5017 6.80535 20.395L7.27641 19.9248C7.31248 19.8893 7.3611 19.8694 7.41177 19.8694C7.46243 19.8694 7.51106 19.8893 7.54712 19.9248L8.40053 20.7766C8.54393 20.9196 8.7384 21 8.94118 21C9.14395 21 9.33842 20.9196 9.48182 20.7766L10.3352 19.9248C10.3713 19.8893 10.4199 19.8694 10.4706 19.8694C10.5213 19.8694 10.5699 19.8893 10.6059 19.9248L11.4594 20.7766C11.6028 20.9196 11.7972 21 12 21C12.2028 21 12.3972 20.9196 12.5406 20.7766L13.3941 19.9248C13.4301 19.8893 13.4787 19.8694 13.5294 19.8694C13.5801 19.8694 13.6287 19.8893 13.6648 19.9248L14.5182 20.7766C14.6616 20.9196 14.8561 21 15.0588 21C15.2616 21 15.4561 20.9196 15.5995 20.7766L16.4529 19.9248C16.4889 19.8893 16.5376 19.8694 16.5882 19.8694C16.6389 19.8694 16.6875 19.8893 16.7236 19.9248L17.1946 20.395C17.3016 20.5017 17.4378 20.5743 17.5862 20.6038C17.7345 20.6332 17.8882 20.6181 18.0279 20.5603C18.1676 20.5026 18.287 20.4048 18.3711 20.2793C18.4551 20.1538 18.5 20.0063 18.5 19.8554V4.14461C18.4999 3.9938 18.455 3.84642 18.371 3.72105C18.2871 3.59568 18.1678 3.49795 18.0282 3.44019ZM7.5 8.99844C7.5 8.66707 7.76863 8.39844 8.1 8.39844H10.5C10.8314 8.39844 11.1 8.66707 11.1 8.99844C11.1 9.32981 10.8314 9.59844 10.5 9.59844H8.1C7.76863 9.59844 7.5 9.32981 7.5 8.99844ZM14.7 8.39844C14.3686 8.39844 14.1 8.66707 14.1 8.99844C14.1 9.32981 14.3686 9.59844 14.7 9.59844H15.9C16.2314 9.59844 16.5 9.32981 16.5 8.99844C16.5 8.66707 16.2314 8.39844 15.9 8.39844H14.7ZM7.5 12C7.5 11.6686 7.76863 11.4 8.1 11.4H11.7C12.0314 11.4 12.3 11.6686 12.3 12C12.3 12.3314 12.0314 12.6 11.7 12.6H8.1C7.76863 12.6 7.5 12.3314 7.5 12ZM14.7 11.4C14.3686 11.4 14.1 11.6686 14.1 12C14.1 12.3314 14.3686 12.6 14.7 12.6H15.9C16.2314 12.6 16.5 12.3314 16.5 12C16.5 11.6686 16.2314 11.4 15.9 11.4H14.7ZM7.5 15.002C7.5 14.6706 7.76863 14.402 8.1 14.402H10.5C10.8314 14.402 11.1 14.6706 11.1 15.002C11.1 15.3334 10.8314 15.602 10.5 15.602H8.1C7.76863 15.602 7.5 15.3334 7.5 15.002ZM14.7 14.402C14.3686 14.402 14.1 14.6706 14.1 15.002C14.1 15.3334 14.3686 15.602 14.7 15.602H15.9C16.2314 15.602 16.5 15.3334 16.5 15.002C16.5 14.6706 16.2314 14.402 15.9 14.402H14.7Z" fill="#333333"/>
</svg>
