<svg width="24" height="24" viewBox="0 0 24 24" fill="none" xmlns="http://www.w3.org/2000/svg">
<path d="M9.65124 9.65124C9.65124 10.5404 10.1453 11.3141 10.8738 11.7129C11.4427 12.0243 12 11.4742 12 10.8256V8.47686C12 7.82827 11.4427 7.27815 10.8738 7.58959C10.1453 7.9884 9.65124 8.76213 9.65124 9.65124Z" fill="#333333"/>
<path d="M14.3488 14.3488C14.3488 15.2379 13.8547 16.0116 13.1262 16.4104C12.5573 16.7219 12 16.1717 12 15.5231V13.1744C12 12.5258 12.5573 11.9757 13.1262 12.2871C13.8547 12.6859 14.3488 13.4596 14.3488 14.3488Z" fill="#333333"/>
<path d="M14.3488 9.65124C13.4596 9.65124 12.6859 10.1453 12.2871 10.8738C11.9757 11.4427 12.5258 12 13.1744 12H15.5231C16.1717 12 16.7219 11.4427 16.4104 10.8738C16.0116 10.1453 15.2379 9.65124 14.3488 9.65124Z" fill="#333333"/>
<path d="M9.65124 14.3488C8.76213 14.3488 7.9884 13.8547 7.58959 13.1262C7.27815 12.5573 7.82827 12 8.47686 12H10.8256C11.4742 12 12.0243 12.5573 11.7129 13.1262C11.3141 13.8547 10.5404 14.3488 9.65124 14.3488Z" fill="#333333"/>
<path fill-rule="evenodd" clip-rule="evenodd" d="M6.40002 5.99999C6.40002 5.66862 6.66865 5.39999 7.00002 5.39999H17C17.3314 5.39999 17.6 5.66862 17.6 5.99999C17.6 6.33136 17.3314 6.59999 17 6.59999H7.00002C6.66865 6.59999 6.40002 6.33136 6.40002 5.99999Z" fill="#333333"/>
<path fill-rule="evenodd" clip-rule="evenodd" d="M6.40002 18C6.40002 17.6686 6.66865 17.4 7.00002 17.4H17C17.3314 17.4 17.6 17.6686 17.6 18C17.6 18.3314 17.3314 18.6 17 18.6H7.00002C6.66865 18.6 6.40002 18.3314 6.40002 18Z" fill="#333333"/>
<path fill-rule="evenodd" clip-rule="evenodd" d="M18.5 4H5.5C4.67157 4 4 4.67157 4 5.5V18.5C4 19.3284 4.67157 20 5.5 20H18.5C19.3284 20 20 19.3284 20 18.5V5.5C20 4.67157 19.3284 4 18.5 4ZM5.5 2.5C3.84315 2.5 2.5 3.84315 2.5 5.5V18.5C2.5 20.1569 3.84315 21.5 5.5 21.5H18.5C20.1569 21.5 21.5 20.1569 21.5 18.5V5.5C21.5 3.84315 20.1569 2.5 18.5 2.5H5.5Z" fill="#333333"/>
</svg>
