<svg width="24" height="24" viewBox="0 0 24 24" fill="none" xmlns="http://www.w3.org/2000/svg">
<path d="M3 16.4067V7.91331C3 7.77027 3.14578 7.67348 3.27761 7.72898L11.5016 11.1915C11.6871 11.2695 11.8076 11.4511 11.8076 11.6523V20.5213C11.8076 20.7358 11.5891 20.881 11.3914 20.7979L3.79623 17.6052C3.3138 17.4024 3 16.9301 3 16.4067Z" fill="#333333"/>
<path d="M12.9833 20.3741C12.9843 18.7419 12.9865 14.298 12.9833 11.6267C12.9831 11.4312 13.0968 11.2536 13.2745 11.1719L20.7165 7.7496C20.849 7.68867 21 7.78547 21 7.93131V16.4601C21 16.9671 20.7063 17.4274 20.2461 17.6401C18.044 18.6575 14.8367 20.1419 13.549 20.7379C13.2838 20.8607 12.9831 20.6663 12.9833 20.3741Z" fill="#333333"/>
<path d="M12.8019 10.1058L15.1331 9.02649C15.2879 8.95479 15.2876 8.73456 15.1326 8.66328L7.51696 5.16235C7.38724 5.10272 7.23821 5.10138 7.10744 5.15869L4.15235 6.45356C3.99143 6.52407 3.9931 6.75294 4.15503 6.82109L11.9939 10.1201C12.2532 10.2292 12.5466 10.2241 12.8019 10.1058Z" fill="#333333"/>
<path d="M17.3812 8.00977L19.9194 6.83739C20.0759 6.76513 20.0738 6.54201 19.916 6.47271L12.7018 3.30432C12.2608 3.1106 11.7582 3.11312 11.3191 3.31123L9.19138 4.27121C9.03494 4.34179 9.03422 4.56369 9.19021 4.63528L16.5447 8.01078C16.8103 8.13266 17.1159 8.1323 17.3812 8.00977Z" fill="#333333"/>
</svg>
