<svg width="24" height="24" viewBox="0 0 24 24" fill="none" xmlns="http://www.w3.org/2000/svg">
<path fill-rule="evenodd" clip-rule="evenodd" d="M8.42704 4.79583C8.64868 5.18906 9.72192 7.12282 9.87363 7.4852C10.0253 7.84759 10.1044 8.11219 9.70148 8.39404C9.30015 8.67642 8.40121 9.47858 8.13492 9.72174C7.86863 9.96594 7.84388 10.2007 8.06606 10.594C8.28717 10.9872 8.77295 12.2631 10.2357 13.7419C11.374 14.8934 12.755 15.6485 13.1767 15.8676C13.598 16.0867 13.8131 15.8692 14.0106 15.6611C14.1886 15.4739 14.477 15.2427 14.7099 15.0336C14.9429 14.8249 15.1118 14.7512 15.3819 14.6079C15.6519 14.4641 15.8951 14.5221 16.1049 14.6147C16.3152 14.7078 18.3746 15.4352 19.2127 15.739C20.0503 16.0428 19.9261 16.3816 19.9352 16.6154C19.9443 16.8491 19.989 17.1153 19.9992 17.3825C20.0094 17.6497 19.9234 18.0874 19.5242 18.4697C19.1266 18.8519 18.1691 19.9234 16.1404 19.9971C14.1123 20.0708 12.0965 18.7071 11.8146 18.5167C11.5316 18.3264 7.13484 15.9115 5.3262 11.8981C3.51864 7.88419 4.06951 7.8638 4.1104 7.127C4.15021 6.38969 5.01633 4.71948 5.96584 4.3503C6.91481 3.98112 7.74059 3.95131 7.91651 4.04543C8.09188 4.13956 8.20593 4.40311 8.42704 4.79583Z" fill="#333333"/>
</svg>
