<svg width="24" height="24" viewBox="0 0 24 24" fill="none" xmlns="http://www.w3.org/2000/svg">
<path d="M13.0021 9.52363C12.9718 9.37807 12.8934 9.24711 12.7797 9.15207C12.666 9.05703 12.5237 9.00349 12.3759 9.00016C12.2281 8.99684 12.0836 9.04393 11.9658 9.13376C11.848 9.2236 11.7638 9.3509 11.7271 9.49495L10.5271 12.1392C10.5139 12.1683 10.4936 12.1935 10.4681 12.2126C10.4426 12.2316 10.4127 12.2438 10.3812 12.248C10.3497 12.2523 10.3177 12.2484 10.2881 12.2367C10.2585 12.2251 10.2324 12.2061 10.2121 12.1814L9.39308 11.1899C9.30519 11.07 9.18845 10.9747 9.05385 10.9128C8.91924 10.8509 8.77119 10.8245 8.62364 10.836C8.47609 10.8476 8.33388 10.8967 8.21041 10.9788C8.08693 11.0609 7.98625 11.1733 7.91783 11.3053L6.05333 14.4287C6.01923 14.486 6.00083 14.5514 6.00003 14.6181C5.99922 14.6849 6.01603 14.7506 6.04875 14.8087C6.08146 14.8668 6.1289 14.9151 6.18623 14.9487C6.24356 14.9823 6.30873 15 6.37508 15H14.6251C14.6864 15 14.7467 14.9849 14.8009 14.9559C14.855 14.927 14.9013 14.8852 14.9356 14.8341C14.97 14.783 14.9913 14.7242 14.9979 14.6629C15.0044 14.6016 14.9959 14.5396 14.9731 14.4823L13.0021 9.52363Z" fill="#333333"/>
<path d="M7.5 9C8.32843 9 9 8.32843 9 7.5C9 6.67157 8.32843 6 7.5 6C6.67157 6 6 6.67157 6 7.5C6 8.32843 6.67157 9 7.5 9Z" fill="#333333"/>
<path d="M16.4211 18C16.8398 18 17.2414 17.8336 17.5375 17.5375C17.8336 17.2414 18 16.8398 18 16.4211V4.57895C18 4.16018 17.8336 3.75857 17.5375 3.46246C17.2414 3.16635 16.8398 3 16.4211 3H4.57895C4.16018 3 3.75857 3.16635 3.46246 3.46246C3.16635 3.75857 3 4.16018 3 4.57895L3 16.4211C3 16.8398 3.16635 17.2414 3.46246 17.5375C3.75857 17.8336 4.16018 18 4.57895 18H16.4211ZM4.57895 4.97368C4.57895 4.86899 4.62054 4.76859 4.69456 4.69456C4.76859 4.62054 4.86899 4.57895 4.97368 4.57895H16.0263C16.131 4.57895 16.2314 4.62054 16.3054 4.69456C16.3795 4.76859 16.4211 4.86899 16.4211 4.97368V16.0263C16.4211 16.131 16.3795 16.2314 16.3054 16.3054C16.2314 16.3795 16.131 16.4211 16.0263 16.4211H4.97368C4.86899 16.4211 4.76859 16.3795 4.69456 16.3054C4.62054 16.2314 4.57895 16.131 4.57895 16.0263V4.97368Z" fill="#333333"/>
<path d="M20.9938 9.73024C21.0119 9.53059 20.9903 9.32933 20.9303 9.13797C20.8702 8.94661 20.7729 8.76889 20.6438 8.61496C20.5147 8.46102 20.3563 8.33389 20.1778 8.24083C19.9993 8.14776 19.8041 8.09058 19.6034 8.07255L18.8361 8.0031C18.6334 7.98488 18.4317 8.0475 18.2754 8.17717C18.1192 8.30685 18.0211 8.49296 18.0028 8.69456C17.9844 8.89617 18.0474 9.09676 18.1778 9.25219C18.3081 9.40763 18.4953 9.50519 18.6979 9.52341L19.0816 9.55699C19.1319 9.56149 19.1807 9.57581 19.2254 9.59913C19.2701 9.62244 19.3097 9.6543 19.342 9.69286C19.3743 9.73143 19.3986 9.77595 19.4136 9.82388C19.4285 9.87181 19.4338 9.9222 19.4292 9.97217L18.5928 19.091C18.5835 19.1916 18.5344 19.2845 18.4562 19.3492C18.3781 19.4139 18.2774 19.4451 18.1762 19.4359L7.86112 18.5018C7.75893 18.4893 7.65527 18.4973 7.55628 18.5255C7.4573 18.5537 7.36503 18.6013 7.28496 18.6657C7.20489 18.7301 7.13867 18.8098 7.09023 18.9002C7.04179 18.9906 7.01213 19.0897 7.00301 19.1917C6.9939 19.2937 7.00551 19.3965 7.03716 19.4939C7.06882 19.5913 7.11986 19.6815 7.18725 19.7589C7.25465 19.8363 7.33702 19.8994 7.42945 19.9445C7.52189 19.9896 7.6225 20.0157 7.7253 20.0213L18.4225 20.9937C18.6233 21.0119 18.8257 20.9907 19.0182 20.9311C19.2108 20.8715 19.3896 20.7747 19.5445 20.6464C19.6994 20.518 19.8274 20.3606 19.9211 20.183C20.0148 20.0054 20.0724 19.8112 20.0906 19.6115L20.9938 9.73024Z" fill="#333333"/>
</svg>
