<svg width="24" height="24" viewBox="0 0 24 24" fill="none" xmlns="http://www.w3.org/2000/svg">
<path fill-rule="evenodd" clip-rule="evenodd" d="M16.5 9C17.3284 9 18 8.32843 18 7.5C18 6.67157 17.3284 6 16.5 6C15.6716 6 15 6.67157 15 7.5C15 8.32843 15.6716 9 16.5 9Z" fill="#333333"/>
<path fill-rule="evenodd" clip-rule="evenodd" d="M18.4074 13.1769C18.0072 12.5282 17.1348 12.5282 16.7346 13.1769L15.2924 15.5145L11.1795 8.84821C10.4818 7.71726 8.96104 7.71726 8.2633 8.84821L3.17615 17.0937C2.66234 17.9265 3.26142 19 4.23997 19H19.76C20.7386 19 21.3377 17.9265 20.8239 17.0937L18.4074 13.1769Z" fill="#333333"/>
</svg>
