<svg width="24" height="24" viewBox="0 0 24 24" fill="none" xmlns="http://www.w3.org/2000/svg">
<path d="M11.9999 3C14.386 3.00293 16.6731 3.95246 18.3603 5.63965C20.0475 7.32684 20.997 9.61395 20.9999 12C20.9999 13.78 20.4722 15.52 19.4833 17C18.4945 18.4799 17.0887 19.6332 15.4443 20.3145C13.7997 20.9956 11.9899 21.1744 10.2441 20.8271C8.49827 20.4799 6.89435 19.6229 5.63569 18.3643C4.37702 17.1056 3.52007 15.5017 3.1728 13.7559C2.82553 12.01 3.0043 10.2002 3.68549 8.55566C4.3667 6.91127 5.52 5.50547 6.99994 4.5166C8.47995 3.52774 10.22 3 11.9999 3ZM11.3789 6.8252C10.4714 6.84967 8.27755 7.00428 7.78412 7.08789C7.66505 7.11236 7.56074 7.1473 7.54194 7.29199C7.49805 7.5941 7.61666 10.394 7.71283 12.3271V12.5107L7.73237 12.8877V13.0674C7.82436 14.9537 7.96234 17.3195 8.02924 17.6172C8.03253 17.6403 8.04018 17.6627 8.05268 17.6826C8.06528 17.7026 8.08269 17.72 8.10248 17.7334C8.18593 17.7904 8.24172 17.8517 9.46283 17.8008H9.70405C10.9248 17.7376 10.9773 17.6721 11.0546 17.5967C11.0873 17.5629 11.109 17.5203 11.1171 17.4746C11.1318 17.3482 11.1171 16.8422 11.1025 16.1797C11.3721 16.1797 11.5958 16.1793 11.8173 16.165C15.5472 15.9917 17.6716 14.2848 17.5253 11.2871V11.1445C17.333 8.00615 15.1546 6.72537 11.3789 6.8252ZM12.2148 7.50195C12.3172 9.57179 14.3577 11.3213 16.415 11.2256C14.3747 11.3209 12.5271 13.2933 12.6005 15.2852C12.4816 13.3452 10.5615 11.4973 8.40522 11.5986C10.542 11.4987 12.3193 9.54126 12.2148 7.50195Z" fill="#333333"/>
</svg>
