<svg width="24" height="24" viewBox="0 0 24 24" fill="none" xmlns="http://www.w3.org/2000/svg">
<path fill-rule="evenodd" clip-rule="evenodd" d="M3 12C3 11.2268 3.67157 10.6 4.5 10.6H19.5C20.3284 10.6 21 11.2268 21 12C21 12.7732 20.3284 13.4 19.5 13.4H4.5C3.67157 13.4 3 12.7732 3 12Z" fill="#333333"/>
<path fill-rule="evenodd" clip-rule="evenodd" d="M12 3.00391C12.7732 3.00391 13.4 3.67559 13.4 4.50415L13.4 19.5065C13.4 20.3351 12.7732 21.0068 12 21.0068C11.2268 21.0068 10.6 20.3351 10.6 19.5065L10.6 4.50415C10.6 3.67559 11.2268 3.00391 12 3.00391Z" fill="#333333"/>
</svg>
