<svg width="24" height="24" viewBox="0 0 24 24" fill="none" xmlns="http://www.w3.org/2000/svg">
<path d="M15.3026 3C15.839 3 16.3037 3.30386 16.5357 3.74862C16.5959 3.86419 16.7088 3.94922 16.8392 3.94922H18.8671C19.3913 3.94922 19.8163 4.37422 19.8163 4.89844V8.93262C19.8162 10.0015 19.4743 10.9925 18.6727 11.7041C18.1032 12.2096 17.362 12.5191 16.4868 12.6521C16.3802 12.6683 16.2889 12.7371 16.2426 12.8345C15.6856 14.0089 14.6558 14.9146 13.3988 15.3068C13.2668 15.348 13.1727 15.4678 13.1727 15.6062V18.3393C13.1727 18.5068 13.3085 18.6426 13.476 18.6426H15.1776C16.015 18.6426 16.6942 19.3218 16.6942 20.1592V20.5352C16.6942 20.7864 16.4903 20.9902 16.2391 20.9902H7.75867C7.50745 20.9902 7.30359 20.7864 7.30359 20.5352V20.1592C7.30359 19.3218 7.9828 18.6426 8.82019 18.6426H10.5218C10.6893 18.6426 10.8251 18.5068 10.8251 18.3393V15.6071C10.8251 15.4688 10.731 15.3489 10.5989 15.3077C9.34913 14.9178 8.32382 14.0197 7.76452 12.8552C7.71796 12.7582 7.62655 12.6899 7.52016 12.6741C6.63757 12.5425 5.89042 12.2324 5.31726 11.7236C4.51562 11.012 4.17371 10.0211 4.17371 8.95215V4.91797C4.1738 4.39383 4.59876 3.96875 5.12292 3.96875H7.14731C7.27935 3.96875 7.39327 3.88157 7.45291 3.76376C7.68232 3.31063 8.1526 3 8.69519 3H15.3026ZM6.13808 5.62988C5.97061 5.62988 5.83484 5.76565 5.83484 5.93313V8.95215C5.83484 9.66276 6.05206 10.1549 6.4198 10.4814C6.60677 10.6474 6.86198 10.7942 7.20167 10.9025C7.25303 10.9188 7.30359 10.8791 7.30359 10.8252V5.93313C7.30359 5.76565 7.16782 5.62988 7.00034 5.62988H6.13808ZM16.6942 10.8252C16.6942 10.868 16.7329 10.8993 16.7737 10.8865C17.1206 10.778 17.3806 10.6302 17.5702 10.4619C17.938 10.1355 18.1551 9.64316 18.1552 8.93262V5.9136C18.1552 5.74612 18.0194 5.61035 17.8519 5.61035H16.9975C16.83 5.61035 16.6942 5.74612 16.6942 5.9136V10.8252Z" fill="#9C6D2B"/>
</svg>
