<svg width="24" height="24" viewBox="0 0 24 24" fill="none" xmlns="http://www.w3.org/2000/svg">
<path d="M19.904 19.8287C19.6677 19.2805 19.4271 18.7323 19.1646 18.1924C18.9327 17.7106 18.6352 17.5694 18.0795 17.6899C17.3751 17.8435 16.6837 18.047 15.9793 18.1841C14.6186 18.454 13.2535 18.479 11.9102 18.0761C10.2257 17.5736 9.32875 16.4149 8.77745 14.9198H13.3453C13.7041 14.9198 13.9929 14.6457 13.9929 14.3051V12.9387C13.9929 12.5982 13.7041 12.3241 13.3453 12.3241H8.33991C8.33991 11.942 8.33554 11.5765 8.33991 11.2111H13.3453C13.7041 11.2111 13.9929 10.9369 13.9929 10.5964V9.23003C13.9929 8.88947 13.7041 8.61537 13.3453 8.61537H8.96997C8.96997 8.59876 8.96997 8.58214 8.97872 8.57384C9.50376 7.44004 10.2695 6.53052 11.5252 6.05706C12.9866 5.50885 14.4786 5.52131 15.9837 5.81618C16.6969 5.95324 17.3969 6.16089 18.1101 6.31455C18.6308 6.42669 18.9327 6.28133 19.1558 5.82034C19.414 5.28874 19.6502 4.74884 19.8865 4.20478C20.1097 3.69395 19.9784 3.33263 19.4709 3.05022C19.344 2.97962 19.2127 2.92148 19.0771 2.87164C16.9681 2.09086 14.7936 1.80014 12.549 2.14069C10.9695 2.38157 9.49501 2.89656 8.22178 3.83516C6.61602 5.01464 5.57468 6.57205 4.97088 8.40356L4.8965 8.61537H2.64755C2.28877 8.61537 2 8.88947 2 9.23003V10.5964C2 10.9369 2.28877 11.2111 2.64755 11.2111H4.41958C4.41958 11.5848 4.41958 11.9462 4.41958 12.3241H2.64755C2.28877 12.3241 2 12.5982 2 12.9387V14.3051C2 14.6457 2.28877 14.9198 2.64755 14.9198H4.78274C4.94463 15.4181 5.08026 15.9248 5.2859 16.4024C6.36662 18.8777 8.17802 20.6386 10.9039 21.4775C13.1572 22.1711 15.428 22.1503 17.6988 21.5564C18.2895 21.4027 18.8758 21.2034 19.4359 20.9584C19.9784 20.7216 20.1184 20.3229 19.904 19.8287Z" fill="#333333"/>
</svg>
