<svg width="24" height="24" viewBox="0 0 24 24" fill="none" xmlns="http://www.w3.org/2000/svg">
<path fill-rule="evenodd" clip-rule="evenodd" d="M5.89274 13.7963C7.50851 12.9762 9.66916 12.4987 12.0006 12.5C14.3312 12.5013 16.4914 12.9787 18.107 13.798C19.6697 14.5905 20.9964 15.8636 21 17.5497L21 17.5519L21 18.7475C21 20.2676 19.7495 21.5 18.2069 21.5H5.7931C4.25051 21.5 3 20.2676 3 18.7475V17.5519L3 17.5497C3.00362 15.864 4.3297 14.5896 5.89274 13.7963ZM5.03941 17.5531V18.7475C5.03941 19.1577 5.37685 19.4902 5.7931 19.4902H18.2069C18.6231 19.4902 18.9606 19.1577 18.9606 18.7475L18.9606 17.554C18.9606 17.5538 18.9606 17.5542 18.9606 17.554C18.959 17.0062 18.4981 16.2566 17.1738 15.585C15.9017 14.94 14.0742 14.5109 11.9994 14.5098C9.92543 14.5086 8.09834 14.9376 6.82651 15.5831C5.50267 16.255 5.04109 17.0049 5.03941 17.5531Z" fill="#333333"/>
<path fill-rule="evenodd" clip-rule="evenodd" d="M12 9C13.3807 9 14.5 7.88071 14.5 6.5C14.5 5.11929 13.3807 4 12 4C10.6193 4 9.5 5.11929 9.5 6.5C9.5 7.88071 10.6193 9 12 9ZM12 11C14.4853 11 16.5 8.98528 16.5 6.5C16.5 4.01472 14.4853 2 12 2C9.51472 2 7.5 4.01472 7.5 6.5C7.5 8.98528 9.51472 11 12 11Z" fill="#333333"/>
</svg>
