<svg width="24" height="24" viewBox="0 0 24 24" fill="none" xmlns="http://www.w3.org/2000/svg">
<rect x="10.6631" y="16.7744" width="2.67361" height="2.67361" rx="1.33681" fill="#333333"/>
<path fill-rule="evenodd" clip-rule="evenodd" d="M12 6.16668C10.4352 6.16668 9.16671 7.4352 9.16671 9.00001C9.16671 9.64434 8.64437 10.1667 8.00004 10.1667C7.35571 10.1667 6.83337 9.64434 6.83337 9.00001C6.83337 6.14654 9.14657 3.83334 12 3.83334C14.8535 3.83334 17.1667 6.14654 17.1667 9.00001C17.1667 10.6492 16.3892 11.9183 15.1682 12.677C14.5778 13.0439 14.0527 13.433 13.6828 13.8532C13.3216 14.2635 13.1667 14.6347 13.1667 15H10.8334C10.8334 13.8926 11.3292 12.9955 11.9315 12.3114C12.5251 11.6371 13.2762 11.1056 13.9367 10.6952C14.4844 10.3548 14.8334 9.82862 14.8334 9.00001C14.8334 7.4352 13.5648 6.16668 12 6.16668Z" fill="#333333"/>
</svg>
