<svg width="24" height="24" viewBox="0 0 24 24" fill="none" xmlns="http://www.w3.org/2000/svg">
<path d="M9.81934 3.03873C10.3917 3.03966 10.9434 3.25189 11.3691 3.63443C11.7949 4.01712 12.0652 4.54379 12.127 5.11295C12.1347 5.18496 12.1632 5.2531 12.209 5.30923C12.2548 5.36539 12.3157 5.40726 12.3848 5.42935C13.9637 5.93545 14.4007 7.69015 14.793 9.26236C14.9487 9.68998 15.1816 10.083 15.4766 10.4245C12.4827 11.1153 10.2502 13.7959 10.25 16.9997C10.25 17.7378 10.3699 18.4481 10.5889 19.1129C6.96894 18.9155 4.91632 17.3543 4.91895 14.7585C4.9304 14.0165 5.10559 13.2858 5.43262 12.6198C5.75973 11.9537 6.23039 11.3677 6.81055 10.9049C7.34798 10.4772 7.75706 9.90968 7.99219 9.26431C8.392 7.65835 8.83802 5.86822 10.4941 5.40103C10.54 5.38817 10.579 5.35791 10.6035 5.31705C10.628 5.27604 10.6364 5.2269 10.626 5.18033C10.5851 4.99732 10.4824 4.83354 10.3359 4.71646C10.1893 4.5994 10.0069 4.53523 9.81934 4.5358H8.39649C8.19802 4.53575 8.00755 4.45737 7.86719 4.31705C7.72686 4.17671 7.64853 3.9862 7.64844 3.78775C7.64844 3.5893 7.72694 3.39884 7.86719 3.25845C8.00756 3.11809 8.19798 3.03877 8.39649 3.03873H9.81934Z" fill="#333333"/>
<path d="M16.8771 2.08263C16.9016 1.96688 16.8987 1.84702 16.8688 1.73258C16.8388 1.61813 16.7825 1.51225 16.7045 1.42336C16.6264 1.33446 16.5287 1.265 16.4191 1.22049C16.3094 1.17599 16.191 1.15766 16.073 1.16697C15.2632 1.23034 14.4958 1.55479 13.8861 2.09158C13.2764 2.62837 12.8573 3.34851 12.6919 4.1438C12.6673 4.25954 12.6701 4.37941 12.6999 4.4939C12.7298 4.60838 12.786 4.71432 12.864 4.80329C12.942 4.89226 13.0396 4.96181 13.1492 5.00641C13.2588 5.05101 13.3773 5.06943 13.4952 5.06021C14.3052 4.9966 15.0727 4.67199 15.6825 4.1351C16.2923 3.59822 16.7115 2.87802 16.8771 2.08263Z" fill="#333333"/>
<path d="M17 12C19.7614 12 22 14.2386 22 17C22 19.7614 19.7614 22 17 22C14.2386 22 12 19.7614 12 17C12 14.2386 14.2386 12 17 12ZM15 16.4004C14.6689 16.4006 14.4006 16.6689 14.4004 17C14.4006 17.3311 14.6689 17.5994 15 17.5996H19L19.1211 17.5879C19.3941 17.5318 19.5994 17.2896 19.5996 17C19.5994 16.7104 19.3941 16.4683 19.1211 16.4121L19 16.4004H15Z" fill="#333333"/>
</svg>
