<svg width="24" height="24" viewBox="0 0 24 24" fill="none" xmlns="http://www.w3.org/2000/svg">
<path fill-rule="evenodd" clip-rule="evenodd" d="M18.15 17C18.15 17.6352 17.6352 18.15 17 18.15L4.00002 18.15C3.3649 18.15 2.85003 17.6352 2.85003 17C2.85003 16.3649 3.3649 15.85 4.00002 15.85L17 15.85C17.6352 15.85 18.15 16.3649 18.15 17Z" fill="#333333"/>
<path fill-rule="evenodd" clip-rule="evenodd" d="M21.15 7.00002C21.15 7.63515 20.6352 8.15002 20 8.15002L7.00002 8.15002C6.3649 8.15002 5.85003 7.63515 5.85003 7.00003C5.85003 6.3649 6.3649 5.85002 7.00002 5.85002L20 5.85002C20.6352 5.85002 21.15 6.3649 21.15 7.00002Z" fill="#333333"/>
<path fill-rule="evenodd" clip-rule="evenodd" d="M3.18683 17.8132C2.73773 17.3641 2.73773 16.6359 3.18683 16.1868L6.72236 12.6513C7.17147 12.2022 7.89961 12.2022 8.34871 12.6513C8.79781 13.1004 8.79781 13.8285 8.34871 14.2776L5.62635 17L8.34871 19.7224C8.79781 20.1715 8.79781 20.8996 8.34871 21.3487C7.89961 21.7978 7.17147 21.7978 6.72236 21.3487L3.18683 17.8132Z" fill="#333333"/>
<path fill-rule="evenodd" clip-rule="evenodd" d="M20.8132 6.18683C21.2623 6.63593 21.2623 7.36407 20.8132 7.81317L17.2776 11.3487C16.8285 11.7978 16.1004 11.7978 15.6513 11.3487C15.2022 10.8996 15.2022 10.1715 15.6513 9.72236L18.3737 7L15.6513 4.27764C15.2022 3.82854 15.2022 3.1004 15.6513 2.65129C16.1004 2.20219 16.8285 2.20219 17.2776 2.65129L20.8132 6.18683Z" fill="#333333"/>
</svg>
