<svg width="24" height="24" viewBox="0 0 24 24" fill="none" xmlns="http://www.w3.org/2000/svg">
<circle cx="11.4697" cy="11.4697" r="0.75" transform="rotate(-45 11.4697 11.4697)" fill="#333333"/>
<circle cx="9.34838" cy="9.34839" r="0.75" transform="rotate(-45 9.34838 9.34839)" fill="#333333"/>
<path d="M7.78822 13.0561C7.91181 15.1812 8.78539 17.2707 10.409 18.8943C10.4284 18.9137 10.4479 18.933 10.4674 18.9522C10.4562 17.8351 10.7698 16.7154 11.4082 15.7468C11.9848 16.0057 12.5799 16.21 13.1858 16.3595C13.414 15.6378 13.8142 14.9587 14.3865 14.3865C14.9587 13.8143 15.6378 13.4141 16.3595 13.1858C16.2099 12.58 16.0057 11.9848 15.7468 11.4083C16.7153 10.7699 17.8351 10.4563 18.9522 10.4675C18.933 10.4479 18.9137 10.4285 18.8943 10.409C17.2707 8.78545 15.1811 7.91187 13.0561 7.78828C10.8404 5.85793 8.00792 5.0125 5.25193 5.25199C5.01244 8.00798 5.85787 10.8405 7.78822 13.0561Z" stroke="#333333" stroke-width="1.5" stroke-linejoin="round"/>
<path d="M16.2426 16.2427C16.8284 15.6569 17.7781 15.6569 18.3639 16.2427C19.2102 17.0889 19.5071 18.2529 19.2204 19.2205C18.2529 19.5072 17.0888 19.2102 16.2426 18.364C15.6568 17.7782 15.6568 16.8285 16.2426 16.2427Z" stroke="#333333" stroke-width="1.5" stroke-linejoin="round"/>
<circle cx="0.75" cy="0.75" r="0.75" transform="matrix(-0.707107 0.707107 0.707107 0.707107 11.4697 10.409)" fill="#333333"/>
<circle cx="0.75" cy="0.75" r="0.75" transform="matrix(-0.707107 0.707107 0.707107 0.707107 9.34839 8.28766)" fill="#333333"/>
</svg>
