<svg width="24" height="24" viewBox="0 0 24 24" fill="none" xmlns="http://www.w3.org/2000/svg">
<path d="M8.25 4.5C11.9779 4.5 15 7.52208 15 11.25C15 12.8797 14.4225 14.3746 13.4609 15.541L16.5381 18.6387C16.8736 18.9767 16.8711 19.5228 16.5332 19.8584C16.1952 20.1939 15.6491 20.1924 15.3135 19.8545L12.2021 16.7207C11.0911 17.5248 9.72634 18 8.25 18C4.52208 18 1.5 14.9779 1.5 11.25C1.5 7.52208 4.52208 4.5 8.25 4.5ZM8.25 6.22461C5.47477 6.22461 3.22461 8.47477 3.22461 11.25C3.22461 14.0252 5.47477 16.2754 8.25 16.2754C11.0252 16.2754 13.2754 14.0252 13.2754 11.25C13.2754 8.47477 11.0252 6.22461 8.25 6.22461ZM21.75 12.75C22.1642 12.75 22.5 13.0858 22.5 13.5C22.5 13.9142 22.1642 14.25 21.75 14.25H17.25C16.8358 14.25 16.5 13.9142 16.5 13.5C16.5 13.0858 16.8358 12.75 17.25 12.75H21.75ZM21.75 9.75C22.1642 9.75 22.5 10.0858 22.5 10.5C22.5 10.9142 22.1642 11.25 21.75 11.25H17.25C16.8358 11.25 16.5 10.9142 16.5 10.5C16.5 10.0858 16.8358 9.75 17.25 9.75H21.75ZM21.75 6.75C22.1642 6.75 22.5 7.08579 22.5 7.5C22.5 7.91421 22.1642 8.25 21.75 8.25H17.25C16.8358 8.25 16.5 7.91421 16.5 7.5C16.5 7.08579 16.8358 6.75 17.25 6.75H21.75Z" fill="#333333"/>
</svg>
