<svg width="24" height="24" viewBox="0 0 24 24" fill="none" xmlns="http://www.w3.org/2000/svg">
<path fill-rule="evenodd" clip-rule="evenodd" d="M10.925 16.125C13.7969 16.125 16.125 13.7969 16.125 10.925C16.125 8.05314 13.7969 5.72502 10.925 5.72502C8.05317 5.72502 5.72505 8.05314 5.72505 10.925C5.72505 13.7969 8.05317 16.125 10.925 16.125ZM18.425 10.925C18.425 15.0672 15.0672 18.425 10.925 18.425C6.78291 18.425 3.42505 15.0672 3.42505 10.925C3.42505 6.78288 6.78291 3.42502 10.925 3.42502C15.0672 3.42502 18.425 6.78288 18.425 10.925Z" fill="#333333"/>
<path fill-rule="evenodd" clip-rule="evenodd" d="M14.6119 14.6118C15.061 14.1627 15.7891 14.1627 16.2382 14.6118L20.2382 18.6118C20.6873 19.0609 20.6873 19.7891 20.2382 20.2382C19.7891 20.6873 19.061 20.6873 18.6119 20.2382L14.6119 16.2382C14.1627 15.7891 14.1627 15.0609 14.6119 14.6118Z" fill="#333333"/>
</svg>
