<svg width="24" height="24" viewBox="0 0 24 24" fill="none" xmlns="http://www.w3.org/2000/svg">
<path d="M19.5322 3.0045C19.9201 3.00489 20.2924 3.15868 20.5674 3.43224C20.8421 3.7057 20.9975 4.07682 21 4.46446L20.9912 9.90001C20.9947 12.4696 20.1268 14.9645 18.5293 16.9772C16.9318 18.9898 14.6986 20.4011 12.1953 20.9811C12.0965 21.0012 11.9944 21.0012 11.8955 20.9811C9.38723 20.4238 7.142 19.0327 5.52637 17.0348C3.91065 15.0365 3.01978 12.5488 3 9.97911L3.00879 4.47423C3.00858 4.08622 3.16213 3.71338 3.43555 3.4381C3.70918 3.16277 4.08156 3.00668 4.46973 3.0045H19.5322ZM17.2422 6.92345C17.0481 6.73264 16.7367 6.73221 16.542 6.92247L10.9287 12.4078L8.45703 9.99962C8.26269 9.81042 7.95283 9.81107 7.75879 10.0006L6.93652 10.8033C6.73578 10.9995 6.73578 11.323 6.93652 11.5191L10.5791 15.0777C10.7734 15.2676 11.084 15.2676 11.2783 15.0777L18.0635 8.44688C18.2636 8.25122 18.2649 7.92937 18.0654 7.73302L17.2422 6.92345Z" fill="#333333"/>
</svg>
