<svg width="24" height="24" viewBox="0 0 24 24" fill="none" xmlns="http://www.w3.org/2000/svg">
<path d="M5.76709 10.8336C8.23063 8.47803 11.5966 8.31658 13.0154 8.36951C13.0429 8.3707 13.0703 8.36587 13.096 8.35531C13.1218 8.34475 13.1452 8.32868 13.165 8.30807C13.1848 8.28746 13.2006 8.26273 13.2113 8.23538C13.222 8.20803 13.2274 8.17863 13.2273 8.14895V5.87985C13.2277 5.71219 13.2724 5.54814 13.3562 5.40689C13.44 5.26565 13.5593 5.15307 13.7003 5.08235C13.8413 5.01162 13.998 4.98567 14.1522 5.00754C14.3063 5.02941 14.4515 5.09819 14.5707 5.20582L20.7022 10.8221C20.7953 10.9049 20.8704 11.0089 20.9219 11.1267C20.9733 11.2444 21 11.373 21 11.5032C21.0007 11.6308 20.9753 11.7571 20.9257 11.8729C20.876 11.9888 20.8034 12.0915 20.7128 12.1737L14.5658 18.0291C14.446 18.1355 14.3006 18.203 14.1466 18.2237C13.9926 18.2444 13.8363 18.2175 13.6959 18.1459C13.5556 18.0744 13.437 17.9614 13.354 17.8199C13.271 17.6785 13.2271 17.5145 13.2273 17.3471L13.2273 14.6695C13.2272 14.6188 13.2109 14.5696 13.1811 14.5304C13.1513 14.4912 13.1098 14.4643 13.0636 14.4543C11.5025 14.1014 6.40773 13.4326 3.76909 18.7684C3.72593 18.8546 3.65735 18.9229 3.5742 18.9625C3.49104 19.002 3.39804 19.0106 3.30987 18.9868C3.22169 18.9631 3.14337 18.9083 3.08726 18.8312C3.03115 18.7541 3.00045 18.6591 3 18.5611C3 15.1901 3.93109 12.591 5.76709 10.8336Z" fill="#333333"/>
</svg>
