<svg width="24" height="24" viewBox="0 0 24 24" fill="none" xmlns="http://www.w3.org/2000/svg">
<path d="M12 17C12.5523 17 13 16.5523 13 16V7.41406L15.293 9.70703L15.3691 9.77539C15.7619 10.0957 16.3409 10.0731 16.707 9.70703C17.0731 9.34092 17.0957 8.76191 16.7754 8.36914L16.707 8.29297L12 3.58594L7.29297 8.29297C6.90244 8.68349 6.90244 9.31651 7.29297 9.70703C7.68349 10.0976 8.31651 10.0976 8.70703 9.70703L11 7.41406V16C11 16.5523 11.4477 17 12 17ZM16.9932 21C18.65 21 19.9932 19.6569 19.9932 18V13C19.9932 12.4477 19.5454 12 18.9932 12C18.4409 12 17.9932 12.4477 17.9932 13V18C17.9932 18.5523 17.5454 19 16.9932 19H6.99316C6.44088 19 5.99317 18.5523 5.99316 18V13C5.99316 12.4477 5.54545 12 4.99316 12C4.44088 12 3.99317 12.4477 3.99316 13V18C3.99317 19.6569 5.33631 21 6.99316 21H16.9932Z" fill="#333333"/>
</svg>
