<svg width="24" height="24" viewBox="0 0 24 24" fill="none" xmlns="http://www.w3.org/2000/svg">
<path d="M19.1816 6.93848C20.8732 8.23756 22.2052 9.98307 23 12C21.27 16.39 17 19.5 12 19.5C10.409 19.5 8.89268 19.1831 7.50781 18.6123L9.6875 16.4326C10.3793 16.7945 11.1657 17 12 17C14.76 17 17 14.76 17 12C17 11.1657 16.7945 10.3793 16.4326 9.6875L19.1816 6.93848ZM12 4.5C13.5906 4.5 15.1067 4.81619 16.4912 5.38672L14.3115 7.56641C13.62 7.20491 12.8339 7 12 7C9.24 7 7 9.24 7 12C7 12.8339 7.20491 13.62 7.56641 14.3115L4.81738 17.0605C3.1263 15.7615 1.79466 14.0165 1 12C2.73 7.61 7 4.5 12 4.5Z" fill="#333333"/>
<path d="M5 20L20 5" stroke="#333333" stroke-width="2" stroke-linecap="round"/>
</svg>
