<svg width="24" height="24" viewBox="0 0 24 24" fill="none" xmlns="http://www.w3.org/2000/svg">
<path d="M3.91699 20.1497C3.66769 20.5644 4.00113 21.1297 4.45898 20.973C5.55575 20.5975 6.60119 20.0545 7.48145 19.5218C7.75219 19.3579 8.0823 19.3259 8.38281 19.4251C9.5045 19.7957 10.7243 20.0003 12 20.0003C17.5227 20.0003 21.9998 16.1946 22 11.5003C22 6.80589 17.5228 3.00031 12 3.00031C6.47715 3.00031 2 6.80589 2 11.5003C2.00008 13.5894 2.88737 15.5019 4.3584 16.9818C4.54094 17.1654 4.66307 17.4065 4.65723 17.6654C4.64049 18.4003 4.45452 19.2564 3.91699 20.1497ZM7 13.0003C6.17167 13.0003 5.50015 12.3286 5.5 11.5003C5.5 10.6719 6.17157 10.0003 7 10.0003C7.82843 10.0003 8.5 10.6719 8.5 11.5003C8.49985 12.3286 7.82833 13.0003 7 13.0003ZM12 13.0003C11.1717 13.0003 10.5002 12.3286 10.5 11.5003C10.5 10.6719 11.1716 10.0003 12 10.0003C12.8284 10.0003 13.5 10.6719 13.5 11.5003C13.4998 12.3286 12.8283 13.0003 12 13.0003ZM17 13.0003C16.1717 13.0003 15.5002 12.3286 15.5 11.5003C15.5 10.6719 16.1716 10.0003 17 10.0003C17.8284 10.0003 18.5 10.6719 18.5 11.5003C18.4998 12.3286 17.8283 13.0003 17 13.0003Z" fill="#333333"/>
</svg>
