<svg width="24" height="24" viewBox="0 0 24 24" fill="none" xmlns="http://www.w3.org/2000/svg">
<path fill-rule="evenodd" clip-rule="evenodd" d="M6.99998 18.15C6.36485 18.15 5.84998 17.6351 5.84998 17L5.84998 3.99999C5.84998 3.36487 6.36485 2.84999 6.99997 2.84999C7.6351 2.84999 8.14998 3.36487 8.14998 3.99999L8.14998 17C8.14998 17.6351 7.6351 18.15 6.99998 18.15Z" fill="#333333"/>
<path fill-rule="evenodd" clip-rule="evenodd" d="M17 21.15C16.3648 21.15 15.85 20.6351 15.85 20L15.85 6.99999C15.85 6.36487 16.3648 5.84999 17 5.84999C17.6351 5.84999 18.15 6.36487 18.15 6.99999L18.15 20C18.15 20.6351 17.6351 21.15 17 21.15Z" fill="#333333"/>
<path fill-rule="evenodd" clip-rule="evenodd" d="M6.18683 3.18683C6.63593 2.73773 7.36407 2.73773 7.81317 3.18683L11.3487 6.72236C11.7978 7.17147 11.7978 7.89961 11.3487 8.34871C10.8996 8.79781 10.1715 8.79781 9.72236 8.34871L7 5.62635L4.27764 8.34871C3.82854 8.79781 3.1004 8.79781 2.65129 8.34871C2.20219 7.89961 2.20219 7.17147 2.65129 6.72236L6.18683 3.18683Z" fill="#333333"/>
<path fill-rule="evenodd" clip-rule="evenodd" d="M17.8132 20.8132C17.3641 21.2623 16.6359 21.2623 16.1868 20.8132L12.6513 17.2776C12.2022 16.8285 12.2022 16.1004 12.6513 15.6513C13.1004 15.2022 13.8285 15.2022 14.2776 15.6513L17 18.3737L19.7224 15.6513C20.1715 15.2022 20.8996 15.2022 21.3487 15.6513C21.7978 16.1004 21.7978 16.8285 21.3487 17.2776L17.8132 20.8132Z" fill="#333333"/>
</svg>
