<svg width="24" height="24" viewBox="0 0 24 24" fill="none" xmlns="http://www.w3.org/2000/svg">
<path d="M16.7363 12.5664C16.974 12.5664 17.187 12.7143 17.2695 12.9365L18.0996 15.1738L20.3428 16.002C20.5657 16.0842 20.7138 16.2962 20.7139 16.5332C20.7139 16.7703 20.5658 16.9822 20.3428 17.0645L18.0996 17.8926L17.2695 20.1299C17.187 20.3523 16.9741 20.5 16.7363 20.5C16.4985 20.5 16.2856 20.3523 16.2031 20.1299L15.373 17.8926L13.1299 17.0645C12.9069 16.9822 12.7588 16.7703 12.7588 16.5332C12.7589 16.2962 12.9069 16.0842 13.1299 16.002L15.373 15.1738L16.2031 12.9365C16.2857 12.7143 16.4986 12.5664 16.7363 12.5664ZM8.75098 5.52441C8.98877 5.52441 9.20166 5.67216 9.28418 5.89453L10.7285 9.78613L14.6309 11.2256C14.8539 11.3079 15.002 11.5207 15.002 11.7578C15.0018 11.9948 14.8537 12.2068 14.6309 12.2891L10.7285 13.7285L9.28418 17.6201C9.20166 17.8425 8.98877 17.9902 8.75098 17.9902C8.51324 17.9902 8.30028 17.8425 8.21777 17.6201L6.77441 13.7285L2.87109 12.2891C2.6482 12.2068 2.50016 11.9948 2.5 11.7578C2.5 11.5207 2.64808 11.3079 2.87109 11.2256L6.77441 9.78613L8.21777 5.89453C8.30028 5.6722 8.51324 5.52447 8.75098 5.52441ZM16.7363 3.5C16.9741 3.50001 17.187 3.64775 17.2695 3.87012L18.0996 6.10742L20.3428 6.93555C20.5658 7.01783 20.7139 7.22969 20.7139 7.4668C20.7138 7.70382 20.5657 7.91579 20.3428 7.99805L18.0996 8.82617L17.2695 11.0635C17.187 11.2857 16.974 11.4336 16.7363 11.4336C16.4986 11.4336 16.2857 11.2857 16.2031 11.0635L15.373 8.82617L13.1299 7.99805C12.9069 7.91579 12.7589 7.70382 12.7588 7.4668C12.7588 7.22969 12.9069 7.01783 13.1299 6.93555L15.373 6.10742L16.2031 3.87012C16.2856 3.64774 16.4985 3.5 16.7363 3.5Z" fill="#333333"/>
</svg>
