<svg width="24" height="24" viewBox="0 0 24 24" fill="none" xmlns="http://www.w3.org/2000/svg">
<path fill-rule="evenodd" clip-rule="evenodd" d="M13.738 10.8529C13.4756 10.7837 13.3883 10.4551 13.5818 10.2649L13.9726 9.88058C12.8344 8.7954 11.0123 8.80404 9.88731 9.91016C9.48825 10.3028 9.21536 10.7957 9.09823 11.3358C9.04179 11.5957 8.80819 11.7737 8.54864 11.7737C8.50991 11.7737 8.4701 11.7699 8.43065 11.7615C8.12692 11.6978 7.93313 11.4039 7.99798 11.1051C8.16054 10.3556 8.53902 9.67192 9.09193 9.12789C10.6555 7.59042 13.1926 7.5807 14.7688 9.09765L15.1747 8.69853C15.3654 8.511 15.6875 8.59804 15.7578 8.8561L16.3407 10.9956C16.4115 11.2555 16.1744 11.4946 15.9138 11.426L13.738 10.8529ZM16.0023 13.2004C15.8397 13.9494 15.4615 14.6328 14.9083 15.1772C14.1458 15.9274 13.1319 16.3404 12.0534 16.3404C10.9901 16.3404 9.98973 15.938 9.23116 15.2076L8.82551 15.6065C8.6348 15.7941 8.31272 15.707 8.2424 15.449L7.65937 13.3093C7.58854 13.0494 7.82567 12.8102 8.08621 12.8788L10.2621 13.452C10.5245 13.5211 10.6118 13.8496 10.4184 14.0399L10.0274 14.4245C10.5734 14.9459 11.2906 15.234 12.0534 15.234C12.8314 15.234 13.5625 14.9361 14.1129 14.3951C14.512 14.002 14.785 13.5091 14.902 12.9694C14.9669 12.6707 15.2654 12.4798 15.5696 12.5437C15.8734 12.6076 16.0671 12.9015 16.0023 13.2004ZM19.3125 6.38298H15.7969L15.1896 5.55617C14.9652 5.25015 14.4719 5 14.0941 5H9.90629C9.52851 5 9.03509 5.25015 8.81071 5.55617L8.20315 6.38298H4.68753C3.75946 6.38298 3 7.12987 3 8.04255V16.3404C3 17.2532 3.75946 18 4.68753 18H19.3125C20.2406 18 21 17.2532 21 16.3404V8.04255C21 7.12987 20.2406 6.38298 19.3125 6.38298Z" fill="#333333"/>
</svg>
