<svg width="24" height="24" viewBox="0 0 24 24" fill="none" xmlns="http://www.w3.org/2000/svg">
<path d="M21.0038 11.2754C21.0038 11.0291 20.9553 10.7853 20.8611 10.5577C20.7668 10.3302 20.6287 10.1235 20.4546 9.94935C20.2804 9.77521 20.0737 9.63708 19.8462 9.54284C19.6187 9.4486 19.3748 9.40009 19.1285 9.40009H14.3946C14.365 9.40003 14.3358 9.39296 14.3094 9.37945C14.2831 9.36595 14.2603 9.34639 14.243 9.32239C14.2256 9.29839 14.2142 9.27062 14.2096 9.24137C14.2051 9.21211 14.2075 9.18219 14.2168 9.15405C14.6309 8.1045 14.7653 6.9654 14.6068 5.84829C14.1658 4.27304 13.2311 3.82297 12.5005 3.92424C12.1412 3.98519 11.8163 4.17488 11.5866 4.45787C11.3569 4.74085 11.2381 5.09778 11.2523 5.46198C11.2523 7.5218 9.65533 9.77215 8.22636 10.7586C8.17633 10.7931 8.13544 10.8392 8.10721 10.8931C8.07899 10.9469 8.06427 11.0068 8.06433 11.0676V18.6558C8.06431 18.7429 8.09462 18.8273 8.15006 18.8945C8.20549 18.9617 8.2826 19.0075 8.36813 19.0241C8.63592 19.0751 8.87896 19.1253 9.10849 19.1741C10.1179 19.4142 11.1524 19.5328 12.19 19.5274H17.0657C18.5345 19.5274 18.7535 18.7023 18.7535 18.2147C18.7538 17.9559 18.6945 17.7005 18.5802 17.4683C18.976 17.2672 19.2766 16.9182 19.417 16.4971C19.5574 16.0759 19.5262 15.6164 19.3303 15.218C19.5313 15.1159 19.7098 14.9746 19.8552 14.8024C20.0007 14.6302 20.1101 14.4306 20.1772 14.2154C20.2442 14.0001 20.2675 13.7737 20.2456 13.5493C20.2237 13.325 20.1571 13.1073 20.0497 12.9091C20.3393 12.7458 20.5802 12.5085 20.7479 12.2214C20.9156 11.9343 21.0039 11.6078 21.0038 11.2754Z" fill="#333333"/>
<path d="M6.93921 11.0879C6.93921 10.8889 6.86018 10.6981 6.71951 10.5575C6.57883 10.4168 6.38804 10.3378 6.18909 10.3378H3.75122C3.55227 10.3378 3.36148 10.4168 3.2208 10.5575C3.08013 10.6981 3.0011 10.8889 3.0011 11.0879V19.3392C3.0011 19.5381 3.08013 19.7289 3.2208 19.8696C3.36148 20.0103 3.55227 20.0893 3.75122 20.0893H6.18909C6.38804 20.0893 6.57883 20.0103 6.71951 19.8696C6.86018 19.7289 6.93921 19.5381 6.93921 19.3392V11.0879Z" fill="#333333"/>
</svg>
