<svg width="24" height="24" viewBox="0 0 24 24" fill="none" xmlns="http://www.w3.org/2000/svg">
<g clip-path="url(#clip0_1_112996)">
<path d="M11.1563 16.9688C11.1557 15.9345 11.4721 14.9249 12.0628 14.0759C12.6536 13.2269 13.4903 12.5793 14.4603 12.2203C15.4303 11.8614 16.487 11.8083 17.4881 12.0682C18.4892 12.3281 19.3866 12.8885 20.0595 13.674C20.1094 13.7321 20.1759 13.7734 20.2501 13.7925C20.3242 13.8117 20.4024 13.8076 20.4742 13.781C20.5459 13.7544 20.6078 13.7065 20.6516 13.6436C20.6953 13.5808 20.7187 13.5061 20.7188 13.4295V12.0915C20.7188 11.874 20.6993 11.5185 20.6753 11.3018L20.0078 5.30178C19.9845 5.10829 19.8915 4.9299 19.7464 4.79989C19.6012 4.66989 19.4136 4.59716 19.2188 4.59528H13.5938C13.405 4.59941 13.2224 4.66316 13.072 4.7774C12.9217 4.89164 12.8113 5.05051 12.7568 5.23128L11.0595 11.3453H5.34376C5.15457 11.3496 4.97188 11.4152 4.82312 11.5321C4.67436 11.6491 4.56757 11.8112 4.51876 11.994L3.83701 14.7488C3.82032 14.8163 3.82273 14.8871 3.84396 14.9533C3.86519 15.0195 3.90441 15.0785 3.95725 15.1237C4.01008 15.1689 4.07443 15.1985 4.14313 15.2093C4.21183 15.22 4.28216 15.2115 4.34626 15.1845C4.88772 14.9577 5.47682 14.8683 6.06119 14.9241C6.64556 14.9799 7.20708 15.1792 7.69582 15.5044C8.18457 15.8296 8.58539 16.2705 8.86264 16.7879C9.13989 17.3053 9.28498 17.8833 9.28501 18.4703C9.28501 18.5697 9.32452 18.6651 9.39485 18.7354C9.46517 18.8058 9.56056 18.8453 9.66001 18.8453H10.9958C11.0538 18.8452 11.1111 18.8317 11.163 18.8057C11.2149 18.7798 11.2601 18.7421 11.295 18.6957C11.3299 18.6493 11.3535 18.5955 11.3641 18.5384C11.3746 18.4813 11.3718 18.4226 11.3558 18.3668C11.2241 17.9124 11.157 17.4418 11.1563 16.9688ZM17.7863 8.91678C17.7862 8.99167 17.7638 9.06484 17.7218 9.12686C17.6799 9.18888 17.6203 9.23692 17.5508 9.26478L13.3583 10.9418C13.3139 10.9594 13.2665 10.9686 13.2188 10.9688C13.1598 10.9687 13.1016 10.9548 13.049 10.928C12.9965 10.9013 12.9509 10.8625 12.9161 10.8149C12.8814 10.7672 12.8583 10.7121 12.8489 10.6538C12.8394 10.5956 12.8438 10.536 12.8618 10.4798L14.1795 6.35478C14.2037 6.27905 14.2513 6.21296 14.3154 6.16605C14.3796 6.11914 14.457 6.09383 14.5365 6.09378H17.4113C17.5107 6.09378 17.6061 6.13328 17.6764 6.20361C17.7468 6.27394 17.7863 6.36932 17.7863 6.46878V8.91678Z" fill="#333333"/>
<path d="M20.1563 16.9688C20.1563 16.19 19.9253 15.4287 19.4927 14.7812C19.06 14.1337 18.4451 13.629 17.7256 13.331C17.0061 13.033 16.2144 12.955 15.4506 13.1069C14.6868 13.2588 13.9852 13.6338 13.4345 14.1845C12.8838 14.7352 12.5088 15.4368 12.3569 16.2006C12.205 16.9644 12.283 17.7561 12.581 18.4756C12.879 19.1951 13.3837 19.81 14.0312 20.2427C14.6787 20.6753 15.44 20.9063 16.2188 20.9063C17.2627 20.9051 18.2635 20.4898 19.0017 19.7517C19.7398 19.0135 20.1551 18.0127 20.1563 16.9688ZM16.2188 18.8438C15.8479 18.8438 15.4854 18.7338 15.1771 18.5278C14.8687 18.3217 14.6284 18.0289 14.4865 17.6863C14.3446 17.3437 14.3074 16.9667 14.3798 16.603C14.4521 16.2392 14.6307 15.9051 14.8929 15.6429C15.1552 15.3807 15.4892 15.2021 15.853 15.1298C16.2167 15.0574 16.5937 15.0946 16.9363 15.2365C17.2789 15.3784 17.5717 15.6187 17.7778 15.9271C17.9838 16.2354 18.0938 16.5979 18.0938 16.9688C18.0938 17.215 18.0453 17.4588 17.951 17.6863C17.8568 17.9138 17.7187 18.1205 17.5446 18.2946C17.3705 18.4687 17.1638 18.6068 16.9363 18.701C16.7088 18.7953 16.465 18.8438 16.2188 18.8438Z" fill="#333333"/>
<path d="M5.71875 16.0312C5.23666 16.0313 4.76539 16.1742 4.36455 16.442C3.9637 16.7099 3.65128 17.0906 3.46679 17.536C3.28231 17.9814 3.23404 18.4715 3.32809 18.9443C3.42214 19.4171 3.65429 19.8514 3.99518 20.1923C4.33607 20.5332 4.77039 20.7654 5.24322 20.8594C5.71605 20.9535 6.20615 20.9052 6.65154 20.7207C7.09694 20.5362 7.47762 20.2238 7.74546 19.823C8.01329 19.4221 8.15625 18.9508 8.15625 18.4688C8.15546 17.8225 7.8984 17.203 7.44145 16.7461C6.9845 16.2891 6.36497 16.032 5.71875 16.0312ZM5.71875 19.4063C5.53333 19.4063 5.35208 19.3513 5.1979 19.2483C5.04373 19.1452 4.92357 18.9988 4.85261 18.8275C4.78166 18.6562 4.76309 18.4677 4.79926 18.2859C4.83544 18.104 4.92473 17.9369 5.05584 17.8058C5.18695 17.6747 5.354 17.5854 5.53585 17.5493C5.71771 17.5131 5.90621 17.5317 6.07752 17.6026C6.24882 17.6736 6.39524 17.7937 6.49825 17.9479C6.60127 18.1021 6.65625 18.2833 6.65625 18.4688C6.65625 18.7173 6.55758 18.9556 6.38193 19.1314C6.20628 19.3072 5.96801 19.4061 5.7195 19.4063H5.71875Z" fill="#333333"/>
<path d="M7.21875 4.59375H7.59375V6.90825C7.37444 6.98579 7.18455 7.1294 7.05024 7.31933C6.91592 7.50925 6.84378 7.73613 6.84375 7.96875V9.84375C6.84375 9.94321 6.88326 10.0386 6.95359 10.1089C7.02391 10.1792 7.11929 10.2188 7.21875 10.2188H9.46875C9.56821 10.2188 9.66359 10.1792 9.73392 10.1089C9.80424 10.0386 9.84375 9.94321 9.84375 9.84375V7.96875C9.84372 7.73613 9.77158 7.50925 9.63726 7.31933C9.50295 7.1294 9.31306 6.98579 9.09375 6.90825V3.84375C9.09375 3.64484 9.01473 3.45407 8.87408 3.31342C8.73343 3.17277 8.54266 3.09375 8.34375 3.09375H7.21875C7.01984 3.09375 6.82907 3.17277 6.68842 3.31342C6.54777 3.45407 6.46875 3.64484 6.46875 3.84375C6.46875 4.04266 6.54777 4.23343 6.68842 4.37408C6.82907 4.51473 7.01984 4.59375 7.21875 4.59375Z" fill="#333333"/>
</g>
<defs>
<clipPath id="clip0_1_112996">
<rect width="18" height="18" fill="white" transform="translate(3 3)"/>
</clipPath>
</defs>
</svg>
