<svg width="24" height="24" viewBox="0 0 24 24" fill="none" xmlns="http://www.w3.org/2000/svg">
<path d="M18.2329 10.8336C15.7694 8.47803 12.4034 8.31658 10.9846 8.36951C10.9571 8.3707 10.9297 8.36587 10.904 8.35531C10.8782 8.34475 10.8548 8.32868 10.835 8.30807C10.8152 8.28746 10.7994 8.26273 10.7887 8.23538C10.778 8.20803 10.7726 8.17863 10.7727 8.14895V5.87985C10.7723 5.71219 10.7276 5.54814 10.6438 5.40689C10.56 5.26565 10.4407 5.15307 10.2997 5.08235C10.1587 5.01162 10.002 4.98567 9.84784 5.00754C9.69368 5.02941 9.54849 5.09819 9.42928 5.20582L3.29783 10.8221C3.20466 10.9049 3.12964 11.0089 3.07815 11.1267C3.02666 11.2444 2.99998 11.373 3.00001 11.5032C2.99933 11.6308 3.02471 11.7571 3.07434 11.8729C3.12397 11.9888 3.19664 12.0915 3.28719 12.1737L9.43419 18.0291C9.55397 18.1355 9.69937 18.203 9.8534 18.2237C10.0074 18.2444 10.1637 18.2175 10.3041 18.1459C10.4444 18.0744 10.563 17.9614 10.646 17.8199C10.729 17.6785 10.7729 17.5145 10.7727 17.3471L10.7727 14.6695C10.7728 14.6188 10.7891 14.5696 10.8189 14.5304C10.8487 14.4912 10.8902 14.4643 10.9364 14.4543C12.4975 14.1014 17.5923 13.4326 20.2309 18.7684C20.2741 18.8546 20.3426 18.9229 20.4258 18.9625C20.509 19.002 20.602 19.0106 20.6901 18.9868C20.7783 18.9631 20.8566 18.9083 20.9127 18.8312C20.9688 18.7541 20.9995 18.6591 21 18.5611C21 15.1901 20.0689 12.591 18.2329 10.8336Z" fill="#333333"/>
</svg>
