<svg width="24" height="24" viewBox="0 0 24 24" fill="none" xmlns="http://www.w3.org/2000/svg">
<path fill-rule="evenodd" clip-rule="evenodd" d="M6.66667 6.66667C6.66667 7.15759 7.06464 7.55556 7.55556 7.55556L16.4444 7.55556C17.9172 7.55556 19.1111 8.74946 19.1111 10.2222V11.1111H17.3333C15.8606 11.1111 14.6667 12.305 14.6667 13.7778C14.6667 15.2505 15.8606 16.4444 17.3333 16.4444H19.1111V17.3333C19.1111 18.8061 17.9172 20 16.4444 20H6.66667C5.19391 20 4 18.8061 4 17.3333L4 10.2222L4 6.66667C4 5.19391 5.19391 4 6.66667 4L13.7778 4C14.9389 4 15.9266 4.74205 16.2927 5.77778L7.55556 5.77778C7.06464 5.77778 6.66667 6.17575 6.66667 6.66667ZM17.3333 12C16.3515 12 15.5556 12.7959 15.5556 13.7778C15.5556 14.7596 16.3515 15.5556 17.3333 15.5556H18.7302C19.4315 15.5556 20 14.987 20 14.2857V13.2698C20 12.5685 19.4315 12 18.7302 12H17.3333Z" fill="#333333"/>
</svg>
