<svg width="24" height="24" viewBox="0 0 24 24" fill="none" xmlns="http://www.w3.org/2000/svg">
<path d="M19.1708 7.58541L12.6708 4.33541C12.2485 4.12426 11.7515 4.12426 11.3292 4.33541L4.82918 7.58541C4.321 7.8395 4 8.35889 4 8.92705V19C4 19.5523 4.44772 20 5 20H6C6.55228 20 7 19.5523 7 19V11C7 10.4477 7.44772 10 8 10H16C16.5523 10 17 10.4477 17 11V19C17 19.5523 17.4477 20 18 20H19C19.5523 20 20 19.5523 20 19V8.92705C20 8.35889 19.679 7.8395 19.1708 7.58541Z" fill="#333333"/>
<rect x="8" y="16.5" width="3.5" height="3.5" rx="1" fill="#333333"/>
<rect x="12.5" y="16.5" width="3.5" height="3.5" rx="1" fill="#333333"/>
<rect x="10.25" y="12" width="3.5" height="3.5" rx="1" fill="#333333"/>
</svg>
