<svg width="24" height="24" viewBox="0 0 24 24" fill="none" xmlns="http://www.w3.org/2000/svg">
<path d="M10.8635 4.0458C11.3588 3.15425 12.6407 3.15425 13.136 4.0458L20.927 18.0683C21.4084 18.9348 20.7815 19.9999 19.7903 19.9999H4.20923C3.21806 19.9998 2.59114 18.9347 3.07251 18.0683L10.8635 4.0458ZM12.0002 15.4999C11.448 15.4999 11.0003 15.9477 11.0002 16.4999C11.0002 17.0522 11.448 17.4999 12.0002 17.4999C12.5524 17.4998 13.0002 17.0521 13.0002 16.4999C13.0002 15.9478 12.5524 15.5 12.0002 15.4999ZM12.0002 9.9999C11.448 9.9999 11.0003 10.4477 11.0002 10.9999V12.9999C11.0002 13.5522 11.448 13.9999 12.0002 13.9999C12.5524 13.9998 13.0002 13.5521 13.0002 12.9999V10.9999C13.0002 10.4478 12.5524 10 12.0002 9.9999Z" fill="#333333"/>
</svg>
