<svg width="24" height="24" viewBox="0 0 24 24" fill="none" xmlns="http://www.w3.org/2000/svg">
<path d="M12.2188 3.5C16.7924 3.50001 20.5 7.23669 20.5 11.8457C20.5 16.4547 16.7924 20.1914 12.2188 20.1914C10.6542 20.1914 9.19083 19.7529 7.94238 18.9932L3.5 20.5L4.96777 15.8789C4.31193 14.6834 3.9375 13.3086 3.9375 11.8457C3.93751 7.23669 7.64561 3.5 12.2188 3.5ZM10.0752 7.53418C9.985 7.48414 9.56178 7.50003 9.0752 7.69629C8.58839 7.89257 8.1445 8.77988 8.12402 9.17188C8.10306 9.56354 7.82038 9.57443 8.74707 11.708C9.67444 13.8416 11.9291 15.1254 12.0742 15.2266C12.2189 15.3279 13.2522 16.0529 14.292 16.0137C15.3321 15.9745 15.8235 15.4054 16.0273 15.2021C16.2319 14.999 16.2757 14.7661 16.2705 14.624C16.2653 14.482 16.243 14.3401 16.2383 14.2158C16.2337 14.0916 16.2965 13.9114 15.8672 13.75C15.4373 13.5885 14.3813 13.2018 14.2734 13.1523C14.166 13.1033 14.0415 13.0723 13.9033 13.1484C13.7649 13.2246 13.678 13.2641 13.5586 13.375C13.4392 13.4862 13.2915 13.6095 13.2002 13.709C13.099 13.8196 12.9884 13.9348 12.7725 13.8184C12.5562 13.7019 11.8483 13.3005 11.2646 12.6885C10.5146 11.9023 10.2657 11.2237 10.1523 11.0146C10.0385 10.8057 10.0511 10.6815 10.1875 10.5518C10.324 10.4225 10.7843 9.99599 10.9902 9.8457C11.1968 9.69588 11.1569 9.55492 11.0791 9.3623C11.0013 9.16966 10.4506 8.14166 10.3369 7.93262C10.2236 7.724 10.165 7.58427 10.0752 7.53418Z" fill="#333333"/>
</svg>
